<?xml version="1.0" encoding="utf-8"?>
<!-- Generator: Adobe Illustrator 13.0.2, SVG Export Plug-In . SVG Version: 6.00 Build 14948)  -->
<!DOCTYPE svg PUBLIC "-//W3C//DTD SVG 1.0//EN" "http://www.w3.org/TR/2001/REC-SVG-20010904/DTD/svg10.dtd">
<svg version="1.0" id="Calque_1" xmlns="http://www.w3.org/2000/svg" xmlns:xlink="http://www.w3.org/1999/xlink" x="0px" y="0px"
	 width="933.395px" height="800px" viewBox="0 0 933.395 800" enable-background="new 0 0 933.395 800" xml:space="preserve">
<g id="svg2">
	<path fill="#010101" d="M590.634,671.316H566.78l15.386,61.539h8.468c4.315,0,7.835-3.523,7.835-7.834v-45.878
		C598.469,674.84,594.949,671.316,590.634,671.316z"/>
	<path fill="#010101" d="M590.634,604.193h-40.636l15.385,61.539h25.251c4.315,0,7.835-3.523,7.835-7.834v-45.871
		C598.469,607.717,594.949,604.193,590.634,604.193z"/>
	<path fill="#010101" d="M523.521,335.658h-40.658l15.385,61.539h25.273c4.314,0,7.834-3.523,7.834-7.834v-45.871
		C531.355,339.182,527.838,335.658,523.521,335.658z"/>
	<path fill="#010101" d="M187.83,604.193h-38.538l15.386,61.539h23.152c4.316,0,7.835-3.523,7.835-7.834v-45.871
		C195.665,607.717,192.146,604.193,187.83,604.193z"/>
	<path fill="#010101" d="M187.83,671.316h-21.755l15.385,61.539h6.37c4.316,0,7.835-3.523,7.835-7.834v-45.878
		C195.665,674.84,192.146,671.316,187.83,671.316z"/>
	<path fill="#010101" d="M523.521,402.781h-23.875l15.385,61.539h8.49c4.314,0,7.834-3.523,7.834-7.834v-45.877
		C531.355,406.305,527.838,402.781,523.521,402.781z"/>
	<path fill="#010101" d="M724.9,671.316h-45.88c-4.315,0-7.823,3.522-7.823,7.827v45.878c0,4.311,3.508,7.834,7.823,7.834h45.88
		c4.316,0,7.835-3.523,7.835-7.834v-45.878C732.735,674.84,729.218,671.316,724.9,671.316z"/>
	<path fill="#010101" d="M724.9,604.193h-45.88c-4.315,0-7.823,3.522-7.823,7.834v45.871c0,4.311,3.508,7.834,7.823,7.834h45.88
		c4.316,0,7.835-3.523,7.835-7.834v-45.871C732.735,607.717,729.218,604.193,724.9,604.193z"/>
	<path fill="#010101" d="M724.9,537.07h-45.88c-4.315,0-7.823,3.522-7.823,7.834v45.858c0,4.312,3.508,7.834,7.823,7.834h45.88
		c4.316,0,7.835-3.522,7.835-7.834v-45.858C732.735,540.594,729.218,537.07,724.9,537.07z"/>
	<path fill="#010101" d="M657.767,738.471h-45.859c-4.314,0-7.822,3.525-7.822,7.836v45.859c0,4.311,3.508,7.834,7.822,7.834h45.859
		c4.316,0,7.835-3.523,7.835-7.834v-45.859C665.602,741.996,662.084,738.471,657.767,738.471z"/>
	<path fill="#010101" d="M657.767,604.193h-45.859c-4.314,0-7.822,3.522-7.822,7.834v45.871c0,4.311,3.508,7.834,7.822,7.834h45.859
		c4.316,0,7.835-3.523,7.835-7.834v-45.871C665.602,607.717,662.084,604.193,657.767,604.193z"/>
	<path fill="#010101" d="M657.767,537.07h-45.859c-4.314,0-7.822,3.522-7.822,7.834v45.858c0,4.312,3.508,7.834,7.822,7.834h45.859
		c4.316,0,7.835-3.522,7.835-7.834v-45.858C665.602,540.594,662.084,537.07,657.767,537.07z"/>
	<path fill="#010101" d="M657.767,671.316h-45.859c-4.314,0-7.822,3.522-7.822,7.827v45.878c0,4.311,3.508,7.834,7.822,7.834h45.859
		c4.316,0,7.835-3.523,7.835-7.834v-45.878C665.602,674.84,662.084,671.316,657.767,671.316z"/>
	<path fill="#010101" d="M926.27,0h-45.827c-4.314,0-7.822,3.523-7.822,7.834v45.859c0,4.311,3.508,7.835,7.822,7.835h38.725
		l14.228-56.885C932.17,1.923,929.461,0,926.27,0z"/>
	<path fill="#010101" d="M724.9,738.471h-45.88c-4.315,0-7.823,3.525-7.823,7.836v45.859c0,4.311,3.508,7.834,7.823,7.834h45.88
		c4.316,0,7.835-3.523,7.835-7.834v-45.859C732.735,741.996,729.218,738.471,724.9,738.471z"/>
	<path fill="#010101" d="M724.9,402.781h-32.059l-16.281,61.035c0.787,0.268,1.605,0.504,2.48,0.504h45.869
		c4.316,0,7.824-3.523,7.824-7.834v-45.877C732.735,406.305,729.218,402.781,724.9,402.781z"/>
	<path fill="#010101" d="M792.034,134.246h-27.59l-16.412,61.539h44.002c4.316,0,7.835-3.523,7.835-7.834v-45.877
		C799.869,137.77,796.351,134.246,792.034,134.246z"/>
	<path fill="#010101" d="M792.034,67.123h-9.681l-16.412,61.539h26.094c4.315,0,7.834-3.523,7.834-7.834V74.957
		C799.869,70.646,796.351,67.123,792.034,67.123z"/>
	<path fill="#010101" d="M728.397,269.453l-16.161,60.609h12.675c4.316,0,7.824-3.523,7.824-7.834v-45.859
		C732.735,273.326,730.943,270.748,728.397,269.453z"/>
	<path fill="#010101" d="M416.375,469.936h-5.88c-4.315,0-7.834,3.525-7.834,7.837v45.858c0,0.234,0.12,0.414,0.143,0.639
		L416.375,469.936z"/>
	<path fill="#010101" d="M724.9,335.658h-14.172l-16.412,61.539h30.573c4.315,0,7.823-3.523,7.823-7.834v-45.871
		C732.735,339.182,729.218,335.658,724.9,335.658z"/>
	<path fill="#010101" d="M254.964,738.471h-45.881c-4.315,0-7.822,3.525-7.822,7.836v45.859c0,4.311,3.507,7.834,7.822,7.834h45.881
		c4.316,0,7.836-3.523,7.836-7.834v-45.859C262.8,741.996,259.28,738.471,254.964,738.471z"/>
	<path fill="#010101" d="M322.098,604.193h-45.881c-4.316,0-7.823,3.522-7.823,7.834v45.871c0,4.311,3.507,7.834,7.823,7.834h45.881
		c4.315,0,7.835-3.523,7.835-7.834v-45.871C329.933,607.717,326.414,604.193,322.098,604.193z"/>
	<path fill="#010101" d="M254.964,671.316h-45.881c-4.315,0-7.822,3.522-7.822,7.827v45.878c0,4.311,3.507,7.834,7.822,7.834h45.881
		c4.316,0,7.836-3.523,7.836-7.834v-45.878C262.8,674.84,259.28,671.316,254.964,671.316z"/>
	<path fill="#010101" d="M322.098,537.07h-45.881c-4.316,0-7.823,3.522-7.823,7.834v45.858c0,4.312,3.507,7.834,7.823,7.834h45.881
		c4.315,0,7.835-3.522,7.835-7.834v-45.858C329.933,540.594,326.414,537.07,322.098,537.07z"/>
	<path fill="#010101" d="M254.964,537.07h-45.881c-4.315,0-7.822,3.522-7.822,7.834v45.858c0,4.312,3.507,7.834,7.822,7.834h45.881
		c4.316,0,7.836-3.522,7.836-7.834v-45.858C262.8,540.594,259.28,537.07,254.964,537.07z"/>
	<path fill="#010101" d="M254.964,604.193h-45.881c-4.315,0-7.822,3.522-7.822,7.834v45.871c0,4.311,3.507,7.834,7.822,7.834h45.881
		c4.316,0,7.836-3.523,7.836-7.834v-45.871C262.8,607.717,259.28,604.193,254.964,604.193z"/>
	<path fill="#010101" d="M389.199,134.246h-25.404l-16.424,61.539h41.828c4.327,0,7.846-3.523,7.846-7.834v-45.877
		C397.045,137.77,393.526,134.246,389.199,134.246z"/>
	<path fill="#010101" d="M349.24,738.471h-5.899c-4.316,0-7.835,3.525-7.835,7.836v45.859c0,0.244,0.131,0.447,0.152,0.693
		L349.24,738.471z"/>
	<path fill="#010101" d="M389.199,67.123h-7.496l-16.423,61.539h23.919c4.327,0,7.834-3.523,7.834-7.834V74.957
		C397.045,70.646,393.526,67.123,389.199,67.123z"/>
	<path fill="#010101" d="M322.098,402.781h-29.95l-16.39,61.444c0.163,0,0.295,0.095,0.459,0.095h45.881
		c4.315,0,7.835-3.523,7.835-7.834v-45.877C329.933,406.305,326.414,402.781,322.098,402.781z"/>
	<path fill="#010101" d="M322.098,738.471h-45.881c-4.316,0-7.823,3.525-7.823,7.836v45.859c0,4.311,3.507,7.834,7.823,7.834h45.881
		c4.315,0,7.835-3.523,7.835-7.834v-45.859C329.933,741.996,326.414,738.471,322.098,738.471z"/>
	<path fill="#010101" d="M322.098,335.658h-12.041l-16.423,61.539h28.453c4.326,0,7.846-3.523,7.846-7.834v-45.871
		C329.933,339.182,326.414,335.658,322.098,335.658z"/>
	<path fill="#010101" d="M322.098,671.316h-45.881c-4.316,0-7.823,3.522-7.823,7.827v45.878c0,4.311,3.507,7.834,7.823,7.834h45.881
		c4.315,0,7.835-3.523,7.835-7.834v-45.878C329.933,674.84,326.414,671.316,322.098,671.316z"/>
	<path fill="#010101" d="M738.308,746.307v38.713l11.648-46.559h-3.804C741.826,738.471,738.308,741.996,738.308,746.307z"/>
	<path fill="#010101" d="M792.034,537.07h-45.903c-4.314,0-7.822,3.522-7.822,7.834v45.858c0,4.312,3.508,7.834,7.822,7.834h38.77
		l14.227-56.905C797.902,538.982,795.215,537.07,792.034,537.07z"/>
	<path fill="#010101" d="M738.308,679.145v45.878c0,4.311,3.519,7.834,7.835,7.834h5.212l15.385-61.539h-20.597
		C741.826,671.316,738.308,674.84,738.308,679.145z"/>
	<path fill="#010101" d="M738.308,612.027v45.871c0,4.311,3.519,7.834,7.835,7.834h21.995l15.385-61.539h-37.38
		C741.826,604.193,738.308,607.717,738.308,612.027z"/>
	<path fill="#010101" d="M872.619,74.957v45.871c0,4.311,3.508,7.834,7.823,7.834h21.963l15.386-61.539h-37.349
		C876.138,67.123,872.619,70.646,872.619,74.957z"/>
	<path fill="#010101" d="M792.034,469.936h-45.903c-4.314,0-7.822,3.525-7.822,7.837v45.858c0,4.312,3.508,7.834,7.822,7.834h45.903
		c4.316,0,7.835-3.522,7.835-7.834v-45.859C799.869,473.461,796.351,469.936,792.034,469.936z"/>
	<path fill="#010101" d="M859.168,67.123h-45.881c-4.315,0-7.822,3.523-7.822,7.834v45.871c0,4.311,3.507,7.834,7.822,7.834h45.881
		c4.316,0,7.836-3.523,7.836-7.834V74.957C867.004,70.646,863.484,67.123,859.168,67.123z"/>
	<path fill="#010101" d="M859.168,134.246h-45.881c-4.315,0-7.822,3.523-7.822,7.828v45.877c0,4.311,3.507,7.834,7.822,7.834h45.881
		c4.316,0,7.836-3.523,7.836-7.834v-45.877C867.004,137.77,863.484,134.246,859.168,134.246z"/>
	<path fill="#010101" d="M859.168,0h-45.881c-4.315,0-7.822,3.523-7.822,7.834v45.859c0,4.311,3.507,7.835,7.822,7.835h45.881
		c4.316,0,7.836-3.524,7.836-7.835V7.834C867.004,3.523,863.484,0,859.168,0z"/>
	<path fill="#010101" d="M872.619,209.236v38.543l11.582-46.379h-3.759C876.138,201.4,872.619,204.926,872.619,209.236z"/>
	<path fill="#010101" d="M859.168,201.4h-45.881c-4.315,0-7.822,3.525-7.822,7.836v45.875c0,4.305,3.507,7.828,7.822,7.828h45.881
		c4.316,0,7.836-3.523,7.836-7.828v-45.875C867.004,204.926,863.484,201.4,859.168,201.4z"/>
	<path fill="#010101" d="M872.619,142.074v45.877c0,4.311,3.508,7.834,7.823,7.834h5.181l15.385-61.539h-20.564
		C876.138,134.246,872.619,137.77,872.619,142.074z"/>
	<path fill="#010101" d="M792.034,335.658h-45.903c-4.314,0-7.822,3.523-7.822,7.834v45.871c0,4.311,3.508,7.834,7.822,7.834h45.903
		c4.316,0,7.835-3.523,7.835-7.834v-45.871C799.869,339.182,796.351,335.658,792.034,335.658z"/>
	<path fill="#010101" d="M805.465,477.771v38.631l11.604-46.468h-3.779C808.981,469.936,805.465,473.461,805.465,477.771z"/>
	<path fill="#010101" d="M792.034,268.535h-45.903c-4.314,0-7.822,3.523-7.822,7.834v45.859c0,4.311,3.508,7.834,7.822,7.834h45.903
		c4.316,0,7.835-3.523,7.835-7.834v-45.859C799.869,272.059,796.351,268.535,792.034,268.535z"/>
	<path fill="#010101" d="M792.034,402.781h-45.903c-4.314,0-7.822,3.523-7.822,7.828v45.877c0,4.311,3.508,7.834,7.822,7.834h45.903
		c4.316,0,7.835-3.523,7.835-7.834v-45.877C799.869,406.305,796.351,402.781,792.034,402.781z"/>
	<path fill="#010101" d="M805.465,343.492v45.871c0,4.311,3.507,7.834,7.822,7.834h21.984l15.385-61.539h-37.369
		C808.981,335.658,805.465,339.182,805.465,343.492z"/>
	<path fill="#010101" d="M859.168,268.535h-45.881c-4.315,0-7.822,3.523-7.822,7.834v45.859c0,4.311,3.507,7.834,7.822,7.834h38.746
		l14.228-56.906C865.037,270.447,862.348,268.535,859.168,268.535z"/>
	<path fill="#010101" d="M805.465,410.609v45.877c0,4.311,3.507,7.834,7.822,7.834h5.201l15.385-61.539h-20.586
		C808.981,402.781,805.465,406.305,805.465,410.609z"/>
	<path fill="#010101" d="M53.562,67.123H15.024l15.385,61.539h23.153c4.315,0,7.835-3.523,7.835-7.834V74.957
		C61.397,70.646,57.879,67.123,53.562,67.123z"/>
	<path fill="#010101" d="M209.104,397.197h29.394l-16.423-61.539h-12.98c-4.316,0-7.834,3.523-7.834,7.834v45.871
		C201.26,393.674,204.777,397.197,209.104,397.197z"/>
	<path fill="#010101" d="M209.104,330.062h11.474l-15.976-59.938c-1.988,1.42-3.343,3.639-3.343,6.244v45.859
		C201.26,326.539,204.777,330.062,209.104,330.062z"/>
	<path fill="#010101" d="M209.104,464.32h45.871c0.479,0,0.896-0.191,1.333-0.269l-16.325-61.271h-30.879
		c-4.327,0-7.845,3.523-7.845,7.828v45.877C201.26,460.797,204.777,464.32,209.104,464.32z"/>
	<path fill="#010101" d="M254.964,469.936h-45.881c-4.315,0-7.822,3.525-7.822,7.837v45.858c0,4.312,3.507,7.834,7.822,7.834h45.881
		c4.316,0,7.836-3.522,7.836-7.834v-35.268l-4.742-17.777C257.105,470.182,256.067,469.936,254.964,469.936z"/>
	<path fill="#010101" d="M322.098,469.936h-45.881c-0.743,0-1.422,0.236-2.099,0.429l-5.726,21.446v31.82
		c0,4.312,3.507,7.834,7.822,7.834h45.882c4.315,0,7.835-3.522,7.835-7.834v-45.859
		C329.933,473.461,326.414,469.936,322.098,469.936z"/>
	<path fill="#010101" d="M389.199,201.4h-43.336l-10.357,38.883v14.828c0,4.305,3.508,7.828,7.822,7.828h45.871
		c4.327,0,7.834-3.523,7.834-7.828v-45.875C397.045,204.926,393.526,201.4,389.199,201.4z"/>
	<path fill="#010101" d="M311.554,330.062h10.544c4.315,0,7.835-3.523,7.835-7.834v-45.859c0-2.262-1.006-4.268-2.546-5.697
		L311.554,330.062z"/>
	<path fill="#010101" d="M141.971,201.4c-4.327,0-7.846,3.525-7.846,7.836v45.875c0,4.305,3.519,7.828,7.846,7.828h45.871
		c4.314,0,7.822-3.523,7.822-7.828v-18.488l-9.396-35.211h-44.297V201.4z"/>
	<path fill="#010101" d="M141.971,61.528h7.016L134.355,6.703c-0.055,0.377-0.229,0.727-0.229,1.131v45.859
		C134.126,58.004,137.644,61.528,141.971,61.528z"/>
	<path fill="#010101" d="M141.971,128.662h24.913l-16.412-61.539h-8.501c-4.327,0-7.846,3.523-7.846,7.834v45.871
		C134.126,125.139,137.644,128.662,141.971,128.662z"/>
	<path fill="#010101" d="M141.971,195.785h42.812l-16.412-61.539h-26.398c-4.327,0-7.846,3.523-7.846,7.828v45.877
		C134.126,192.262,137.644,195.785,141.971,195.785z"/>
	<path fill="#010101" d="M389.199,61.528c4.327,0,7.846-3.524,7.846-7.835V9.632L383.19,61.539h6.01L389.199,61.528L389.199,61.528z
		"/>
	<path fill="#010101" d="M53.562,201.4h-4.96l12.795,51.191v-43.355C61.397,204.926,57.879,201.4,53.562,201.4z"/>
	<path fill="#010101" d="M732.735,255.111v-1.939l-1.792,6.715C732.004,258.553,732.735,256.941,732.735,255.111z"/>
	<path fill="#010101" d="M724.9,469.936h-45.88c-1.728,0-3.233,0.673-4.522,1.623l-3.301,12.386v39.688
		c0,4.312,3.508,7.834,7.823,7.834h45.87c4.327,0,7.846-3.522,7.846-7.834v-45.858C732.735,473.461,729.218,469.936,724.9,469.936z"
		/>
	<path fill="#010101" d="M792.034,201.4h-45.487l-8.238,30.875v22.836c0,4.305,3.519,7.828,7.846,7.828h45.893
		c4.315,0,7.824-3.523,7.824-7.828v-45.875C799.869,204.926,796.351,201.4,792.034,201.4z"/>
	<path fill="#010101" d="M783.841,61.528h8.194c4.315,0,7.834-3.524,7.834-7.835V7.834c0-1.207-0.328-2.316-0.818-3.338
		L783.841,61.528z"/>
	<path fill="#010101" d="M657.767,469.936h-45.859c-4.314,0-7.822,3.525-7.822,7.837v45.858c0,4.312,3.508,7.834,7.822,7.834h45.859
		c4.316,0,7.835-3.522,7.835-7.834v-27.399l-6.972-26.125C658.336,470.084,658.084,469.936,657.767,469.936z"/>
	<path fill="#010101" d="M53.562,0H7.682C3.649,0,0.427,3.131,0,7.059l13.626,54.47h39.927c4.315,0,7.822-3.524,7.822-7.835V7.834
		C61.397,3.523,57.879,0,53.562,0z"/>
	<path fill="#010101" d="M544.773,61.528h4.852l-12.695-47.554v39.719C536.929,58.004,540.446,61.528,544.773,61.528z"/>
	<path fill="#010101" d="M544.773,128.662h22.75l-16.412-61.539h-6.338c-4.327,0-7.845,3.523-7.845,7.834v45.871
		C536.929,125.139,540.446,128.662,544.773,128.662z"/>
	<path fill="#010101" d="M544.773,201.4c-4.327,0-7.845,3.525-7.845,7.836v45.875c0,4.305,3.518,7.828,7.845,7.828h45.87
		c4.315,0,7.824-3.523,7.824-7.828v-10.49L586.951,201.4H544.773z"/>
	<path fill="#010101" d="M611.93,464.32h45.159l-16.422-61.539H611.93c-4.327,0-7.847,3.523-7.847,7.828v45.877
		C604.084,460.797,607.603,464.32,611.93,464.32z"/>
	<path fill="#010101" d="M611.93,330.062h9.331l-15.538-58.26c-0.961,1.299-1.64,2.818-1.64,4.555v45.861
		C604.084,326.539,607.603,330.062,611.93,330.062z"/>
	<path fill="#010101" d="M611.93,397.197h27.262l-16.423-61.539H611.93c-4.327,0-7.847,3.523-7.847,7.834v45.871
		C604.084,393.674,607.603,397.197,611.93,397.197z"/>
	<path fill="#010101" d="M544.773,195.785h40.67l-16.412-61.539h-24.258c-4.327,0-7.845,3.523-7.845,7.828v45.877
		C536.929,192.262,540.446,195.785,544.773,195.785z"/>
	<path fill="#010101" d="M187.83,268.535h-45.881c-4.315,0-7.823,3.523-7.823,7.834v45.859c0,4.311,3.508,7.834,7.823,7.834h45.881
		c4.316,0,7.835-3.523,7.835-7.834v-45.859C195.665,272.059,192.146,268.535,187.83,268.535z"/>
	<path fill="#010101" d="M590.634,402.781h-45.882c-4.315,0-7.822,3.523-7.822,7.828v45.877c0,4.311,3.507,7.834,7.822,7.834h45.882
		c4.315,0,7.835-3.523,7.835-7.834v-45.877C598.469,406.305,594.949,402.781,590.634,402.781z"/>
	<path fill="#010101" d="M456.365,0h-45.881c-4.316,0-7.823,3.523-7.823,7.834v45.859c0,4.311,3.507,7.835,7.823,7.835h45.881
		c4.316,0,7.835-3.524,7.835-7.835V7.834C464.2,3.523,460.682,0,456.365,0z"/>
	<path fill="#010101" d="M590.634,335.658h-45.882c-4.315,0-7.822,3.523-7.822,7.834v45.871c0,4.311,3.507,7.834,7.822,7.834h45.882
		c4.315,0,7.835-3.523,7.835-7.834v-45.871C598.469,339.182,594.949,335.658,590.634,335.658z"/>
	<path fill="#010101" d="M590.634,738.471h-7.069l14.216,56.842c0.427-0.963,0.688-2.026,0.688-3.146v-45.859
		C598.469,741.996,594.949,738.471,590.634,738.471z"/>
	<path fill="#010101" d="M590.634,268.535h-45.882c-4.315,0-7.822,3.523-7.822,7.834v45.859c0,4.311,3.507,7.834,7.822,7.834h45.882
		c4.315,0,7.835-3.523,7.835-7.834v-45.859C598.469,272.059,594.949,268.535,590.634,268.535z"/>
	<path fill="#010101" d="M523.521,201.4h-45.903c-4.315,0-7.823,3.525-7.823,7.836v45.875c0,4.305,3.508,7.828,7.823,7.828h45.903
		c4.314,0,7.834-3.523,7.834-7.828v-45.875C531.355,204.926,527.838,201.4,523.521,201.4z"/>
	<path fill="#010101" d="M523.521,134.246h-45.903c-4.315,0-7.823,3.523-7.823,7.828v45.877c0,4.311,3.508,7.834,7.823,7.834h45.903
		c4.314,0,7.834-3.523,7.834-7.834v-45.877C531.355,137.77,527.838,134.246,523.521,134.246z"/>
	<path fill="#010101" d="M523.521,268.535h-45.903c-4.315,0-7.823,3.523-7.823,7.834v6.994l11.67,46.699h42.058
		c4.315,0,7.834-3.523,7.834-7.834v-45.859C531.355,272.059,527.838,268.535,523.521,268.535z"/>
	<path fill="#010101" d="M523.521,469.936h-7.092l14.227,56.863c0.438-0.973,0.699-2.037,0.699-3.168v-45.859
		C531.355,473.461,527.838,469.936,523.521,469.936z"/>
	<path fill="#010101" d="M523.521,0h-45.903c-4.315,0-7.823,3.523-7.823,7.834v45.859c0,4.311,3.508,7.835,7.823,7.835h45.903
		c4.314,0,7.834-3.524,7.834-7.835V7.834C531.355,3.523,527.838,0,523.521,0z"/>
	<path fill="#010101" d="M523.521,67.123h-45.903c-4.315,0-7.823,3.523-7.823,7.834v45.871c0,4.311,3.508,7.834,7.823,7.834h45.903
		c4.314,0,7.834-3.523,7.834-7.834V74.957C531.355,70.646,527.838,67.123,523.521,67.123z"/>
	<path fill="#010101" d="M590.634,537.07h-45.882c-4.315,0-7.822,3.522-7.822,7.834v6.994l11.669,46.698h42.035
		c4.315,0,7.835-3.522,7.835-7.834v-45.858C598.469,540.594,594.949,537.07,590.634,537.07z"/>
	<path fill="#010101" d="M590.634,469.936h-45.882c-4.315,0-7.822,3.525-7.822,7.837v45.858c0,4.312,3.507,7.834,7.822,7.834h45.882
		c4.315,0,7.835-3.522,7.835-7.834v-45.859C598.469,473.461,594.949,469.936,590.634,469.936z"/>
	<path fill="#010101" d="M120.696,402.781H98.941l15.385,61.539h6.37c4.316,0,7.835-3.523,7.835-7.834v-45.877
		C128.531,406.305,125.013,402.781,120.696,402.781z"/>
	<path fill="#010101" d="M120.696,469.936h-4.96l12.795,51.191v-43.354C128.531,473.461,125.013,469.936,120.696,469.936z"/>
	<path fill="#010101" d="M187.83,537.07h-45.881c-4.032,0-7.256,3.131-7.682,7.059l13.626,54.469h39.926
		c4.316,0,7.823-3.522,7.823-7.834v-45.858C195.665,540.594,192.146,537.07,187.83,537.07z"/>
	<path fill="#010101" d="M120.696,335.658H82.158l15.385,61.539h23.153c4.316,0,7.835-3.523,7.835-7.834v-45.871
		C128.531,339.182,125.013,335.658,120.696,335.658z"/>
	<path fill="#010101" d="M187.83,469.936h-45.881c-4.315,0-7.823,3.525-7.823,7.837v45.858c0,4.312,3.508,7.834,7.823,7.834h45.881
		c4.316,0,7.835-3.522,7.835-7.834v-45.859C195.665,473.461,192.146,469.936,187.83,469.936z"/>
	<path fill="#010101" d="M187.83,335.658h-45.881c-4.315,0-7.823,3.523-7.823,7.834v45.871c0,4.311,3.508,7.834,7.823,7.834h45.881
		c4.316,0,7.835-3.523,7.835-7.834v-45.871C195.665,339.182,192.146,335.658,187.83,335.658z"/>
	<path fill="#010101" d="M187.83,402.781h-45.881c-4.315,0-7.823,3.523-7.823,7.828v45.877c0,4.311,3.508,7.834,7.823,7.834h45.881
		c4.316,0,7.835-3.523,7.835-7.834v-45.877C195.665,406.305,192.146,402.781,187.83,402.781z"/>
	<path fill="#010101" d="M120.696,134.246H74.837c-4.314,0-7.822,3.523-7.822,7.828v45.877c0,4.311,3.508,7.834,7.822,7.834h45.859
		c4.316,0,7.835-3.523,7.835-7.834v-45.877C128.531,137.77,125.013,134.246,120.696,134.246z"/>
	<path fill="#010101" d="M120.696,268.535H74.837c-4.043,0-7.288,3.158-7.682,7.119l13.604,54.42h39.926
		c4.315,0,7.823-3.523,7.823-7.828v-45.865C128.531,272.059,125.013,268.535,120.696,268.535z"/>
	<path fill="#010101" d="M120.696,201.4H74.837c-4.314,0-7.822,3.525-7.822,7.836v45.875c0,4.305,3.508,7.828,7.822,7.828h45.859
		c4.316,0,7.835-3.523,7.835-7.828v-45.875C128.531,204.926,125.013,201.4,120.696,201.4z"/>
	<path fill="#010101" d="M120.696,0H74.837c-4.314,0-7.822,3.523-7.822,7.834v45.859c0,4.311,3.508,7.835,7.822,7.835h45.859
		c4.316,0,7.835-3.524,7.835-7.835V7.834C128.531,3.523,125.013,0,120.696,0z"/>
	<path fill="#010101" d="M53.562,134.246H31.808l15.385,61.539h6.37c4.315,0,7.835-3.523,7.835-7.834v-45.877
		C61.397,137.77,57.879,134.246,53.562,134.246z"/>
	<path fill="#010101" d="M120.696,67.123H74.837c-4.314,0-7.822,3.523-7.822,7.834v45.871c0,4.311,3.508,7.834,7.822,7.834h45.859
		c4.316,0,7.835-3.523,7.835-7.834V74.957C128.531,70.646,125.013,67.123,120.696,67.123z"/>
	<path fill="#010101" d="M389.199,335.658h-45.871c-4.314,0-7.822,3.523-7.822,7.834v45.871c0,4.311,3.508,7.834,7.822,7.834h45.871
		c4.327,0,7.846-3.523,7.846-7.834v-45.871C397.045,339.182,393.526,335.658,389.199,335.658z"/>
	<path fill="#010101" d="M456.365,268.535h-45.881c-4.316,0-7.823,3.523-7.823,7.834v45.859c0,4.311,3.507,7.834,7.823,7.834h40.844
		l12.851-51.426v-2.268C464.2,272.059,460.682,268.535,456.365,268.535z"/>
	<path fill="#010101" d="M410.507,397.197h24.061l15.385-61.539h-39.444c-4.327,0-7.846,3.523-7.846,7.834v45.871
		C402.661,393.674,406.179,397.197,410.507,397.197z"/>
	<path fill="#010101" d="M410.507,464.32h7.276l15.385-61.539h-22.661c-4.327,0-7.846,3.523-7.846,7.828v45.877
		C402.661,460.797,406.179,464.32,410.507,464.32z"/>
	<path fill="#010101" d="M389.199,268.535h-45.871c-4.314,0-7.822,3.523-7.822,7.834v45.859c0,4.311,3.508,7.834,7.822,7.834h45.871
		c4.327,0,7.846-3.523,7.846-7.834v-45.859C397.045,272.059,393.526,268.535,389.199,268.535z"/>
	<path fill="#010101" d="M456.365,201.4h-45.881c-4.316,0-7.823,3.525-7.823,7.836v45.875c0,4.305,3.507,7.828,7.823,7.828h45.881
		c4.316,0,7.835-3.523,7.835-7.828v-45.875C464.2,204.926,460.682,201.4,456.365,201.4z"/>
	<path fill="#010101" d="M456.365,134.246h-45.881c-4.316,0-7.823,3.523-7.823,7.828v45.877c0,4.311,3.507,7.834,7.823,7.834h45.881
		c4.316,0,7.835-3.523,7.835-7.834v-45.877C464.2,137.77,460.682,134.246,456.365,134.246z"/>
	<path fill="#010101" d="M389.199,537.07h-45.871c-4.314,0-7.822,3.522-7.822,7.834v45.858c0,4.312,3.508,7.834,7.822,7.834h40.866
		l12.828-51.334v-2.358C397.045,540.594,393.526,537.07,389.199,537.07z"/>
	<path fill="#010101" d="M187.83,738.471h-4.96l12.795,51.191v-43.355C195.665,741.996,192.146,738.471,187.83,738.471z"/>
	<path fill="#010101" d="M456.365,67.123h-45.881c-4.316,0-7.823,3.523-7.823,7.834v45.871c0,4.311,3.507,7.834,7.823,7.834h45.881
		c4.316,0,7.835-3.523,7.835-7.834V74.957C464.2,70.646,460.682,67.123,456.365,67.123z"/>
	<path fill="#010101" d="M343.341,732.855h7.31l15.385-61.539h-22.694c-4.316,0-7.835,3.522-7.835,7.827v45.878
		C335.506,729.332,339.023,732.855,343.341,732.855z"/>
	<path fill="#010101" d="M343.341,665.732h24.093l15.385-61.539h-39.478c-4.316,0-7.835,3.522-7.835,7.834v45.871
		C335.506,662.209,339.023,665.732,343.341,665.732z"/>
	<path fill="#010101" d="M389.199,402.781h-45.871c-4.314,0-7.822,3.523-7.822,7.828v45.877c0,4.311,3.508,7.834,7.822,7.834h45.871
		c4.327,0,7.846-3.523,7.846-7.834v-45.877C397.045,406.305,393.526,402.781,389.199,402.781z"/>
	<path fill="#010101" d="M389.199,469.936h-45.871c-4.314,0-7.822,3.525-7.822,7.837v45.858c0,4.312,3.508,7.834,7.822,7.834h45.871
		c4.327,0,7.846-3.522,7.846-7.834v-45.859C397.045,473.461,393.526,469.936,389.199,469.936z"/>
</g>
</svg>
