<?xml version="1.0" encoding="UTF-8" standalone="no"?>
<!-- Created with Inkscape (http://www.inkscape.org/) -->

<svg
   xmlns:dc="http://purl.org/dc/elements/1.1/"
   xmlns:cc="http://creativecommons.org/ns#"
   xmlns:rdf="http://www.w3.org/1999/02/22-rdf-syntax-ns#"
   xmlns:svg="http://www.w3.org/2000/svg"
   xmlns="http://www.w3.org/2000/svg"
   xmlns:sodipodi="http://sodipodi.sourceforge.net/DTD/sodipodi-0.dtd"
   xmlns:inkscape="http://www.inkscape.org/namespaces/inkscape"
   width="744.09448819"
   height="1052.3622047"
   id="svg2"
   version="1.1"
   inkscape:version="0.48.5 r10040"
   sodipodi:docname="AL.svg">
  <defs
     id="defs4" />
  <sodipodi:namedview
     id="base"
     pagecolor="#ffffff"
     bordercolor="#666666"
     borderopacity="1.0"
     inkscape:pageopacity="0.0"
     inkscape:pageshadow="2"
     inkscape:zoom="0.78203005"
     inkscape:cx="418.56005"
     inkscape:cy="382.24821"
     inkscape:document-units="px"
     inkscape:current-layer="layer1"
     showgrid="true"
     inkscape:snap-global="true"
     inkscape:window-width="1196"
     inkscape:window-height="715"
     inkscape:window-x="27"
     inkscape:window-y="0"
     inkscape:window-maximized="0"
     inkscape:snap-bbox="false">
    <inkscape:grid
       type="xygrid"
       id="grid3967"
       empspacing="6"
       visible="true"
       enabled="true"
       snapvisiblegridlinesonly="true"
       dotted="false"
       spacingx="1px"
       spacingy="1px" />
  </sodipodi:namedview>
  <metadata
     id="metadata7">
    <rdf:RDF>
      <cc:Work
         rdf:about="">
        <dc:format>image/svg+xml</dc:format>
        <dc:type
           rdf:resource="http://purl.org/dc/dcmitype/StillImage" />
        <dc:title></dc:title>
      </cc:Work>
    </rdf:RDF>
  </metadata>
  <g
     inkscape:label="Layer 1"
     inkscape:groupmode="layer"
     id="layer1">
    <path
       style="opacity:0.93999999;fill:#000000;stroke:none"
       d="m 53.46218,310.66011 12,0 3,-12 18,0 3,12 12,0 -17.86444,-72 -12.13556,0 z"
       id="path3004"
       inkscape:connector-curvature="0"
       sodipodi:nodetypes="ccccccccc" />
    <path
       style="fill:#ffffff;stroke:none"
       d="m 71.46218,286.66011 12,0 -6,-21 z"
       id="path3774"
       inkscape:connector-curvature="0" />
    <path
       style="fill:#000000;stroke:none"
       d="m 113.46218,238.67293 0,72 12,0 12,0 12,0 12,0 0,-12 -36,0 0,-60 -12,0 z"
       id="path3776"
       inkscape:connector-curvature="0" />
    <path
       style="fill:#000000;stroke:none"
       d="m 197.46218,238.67293 18,36 -18,36 12,0 12,-24 12,24 12,0 -18,-36 18,-36 -12,0 -12,24 -12,-24 -12,0 z"
       id="path3797"
       inkscape:connector-curvature="0" />
    <path
       style="fill:#000000;stroke:none"
       d="m 263.46218,238.67293 18,36 -18,36 12,0 18,-36 18,-36 -12,0 -12,24 -12,-24 -12,0 z"
       id="path3797-6"
       inkscape:connector-curvature="0" />
    <path
       style="fill:#000000;stroke:none"
       d="m 341.46218,274.66011 12,0 18,-36 -12,0 z"
       id="path3797-6-1"
       inkscape:connector-curvature="0"
       sodipodi:nodetypes="ccccc" />
    <path
       style="fill:#000000;stroke:none"
       d="m 353.46218,274.66011 -12,0 -18,-36 12,0 z"
       id="path3797-3-4-3"
       inkscape:connector-curvature="0"
       sodipodi:nodetypes="ccccc" />
    <rect
       style="opacity:0.93999999;fill:#000000;stroke:none"
       id="rect3906"
       width="12"
       height="36"
       x="341.46219"
       y="274.66013" />
    <path
       style="fill:#280b0b;stroke:none"
       d="m 132,140.36218 12,0 0,72 -12,0 z"
       id="path2985"
       inkscape:connector-curvature="0" />
    <path
       style="fill:#280b0b;stroke:none"
       d="m 168,140.36218 12,0 0,72 -12,0 z"
       id="path2985-2"
       inkscape:connector-curvature="0" />
    <path
       style="fill:#280b0b;stroke:none"
       d="m 144,140.36218 24,48 0,24 -24,-48 z"
       id="path3005"
       inkscape:connector-curvature="0" />
    <path
       style="fill:#280b0b;stroke:none"
       d="m 204,140.36219 12,0 0,71.99999 -12,0 z"
       id="path2985-5"
       inkscape:connector-curvature="0" />
    <path
       style="fill:#280b0b;stroke:none"
       d="m 240,146.36218 12,0 0,60 -12,0 z"
       id="path2985-5-9"
       inkscape:connector-curvature="0" />
    <path
       style="fill:#280b0b;stroke:none"
       d="m 240,152.36218 0,-6 5.92857,-6 36.78572,0 5.28571,6 0,6 z"
       id="path2985-5-9-7"
       inkscape:connector-curvature="0"
       sodipodi:nodetypes="ccccccc" />
    <path
       style="fill:#280b0b;stroke:none"
       d="m 240,206.36218 0,-6 48,0 0,6 -6,6 -36,0 z"
       id="path2985-5-9-7-8"
       inkscape:connector-curvature="0"
       sodipodi:nodetypes="ccccccc" />
    <path
       style="fill:#280b0b;stroke:none"
       d="m 276,194.36218 12,0 0,12 -12,0 z"
       id="path2985-5-9-7-8-9"
       inkscape:connector-curvature="0" />
    <path
       style="fill:#280b0b;stroke:none"
       d="m 276,146.36218 12,0 0,12 -12,0 z"
       id="path2985-5-9-7-8-9-8"
       inkscape:connector-curvature="0" />
    <path
       style="fill:#280b0b;stroke:none"
       d="m 312,212.36218 0,-72 12,0 0,72 z"
       id="path3128"
       inkscape:connector-curvature="0" />
    <path
       style="fill:#280b0b;stroke:none"
       d="m 360,152.36218 -42,0 0,-12 36.28571,0 5.71429,6 z"
       id="path3128-8"
       inkscape:connector-curvature="0"
       sodipodi:nodetypes="cccccc" />
    <path
       style="fill:#280b0b;stroke:none"
       d="m 348,206.36218 12,0 0,-60 -12,0 z"
       id="path2985-3"
       inkscape:connector-curvature="0" />
    <path
       style="fill:#280b0b;stroke:none"
       d="m 360,200.36218 -42,0 0,12 36.28571,0 5.71429,-6 z"
       id="path3128-8-0"
       inkscape:connector-curvature="0"
       sodipodi:nodetypes="cccccc" />
    <path
       style="fill:#280b0b;stroke:none"
       d="M 384 140.375 L 384 212.375 L 390 212.375 L 396 212.375 L 426 212.375 L 426 200.375 L 396 200.375 L 396 182.375 L 408 182.375 L 408 170.375 L 396 170.375 L 396 152.375 L 426 152.375 L 426 140.375 L 396 140.375 L 390 140.375 L 384 140.375 z "
       id="path2985-37" />
    <path
       style="fill:#280b0b;stroke:none"
       d="m 456,212.36218 -6,-5 0,-61.78571 6,-5.21429 6,0 0,72 z"
       id="path3128-85"
       inkscape:connector-curvature="0"
       sodipodi:nodetypes="ccccccc" />
    <path
       style="fill:#280b0b;stroke:none"
       d="m 498,152.36218 -42,0 0,-12 36.28571,0 5.71429,6 z"
       id="path3128-8-8"
       inkscape:connector-curvature="0"
       sodipodi:nodetypes="cccccc" />
    <path
       style="fill:#280b0b;stroke:none"
       d="m 486,206.36218 12,0 0,-60 -12,0 z"
       id="path2985-3-9"
       inkscape:connector-curvature="0" />
    <path
       style="fill:#280b0b;stroke:none"
       d="m 498,200.36218 -42,0 0,12 36.28571,0 5.71429,-6 z"
       id="path3128-8-0-6"
       inkscape:connector-curvature="0"
       sodipodi:nodetypes="cccccc" />
    <path
       style="fill:#280b0b;stroke:none"
       d="m 528,212.36218 -6,-5 0,-61.78571 6,-5.21429 6,0 0,72 z"
       id="path3128-85-4"
       inkscape:connector-curvature="0"
       sodipodi:nodetypes="ccccccc" />
    <path
       style="fill:#280b0b;stroke:none"
       d="m 570,152.36218 -42,0 0,-12 36.28571,0 5.71429,6 z"
       id="path3128-8-8-8"
       inkscape:connector-curvature="0"
       sodipodi:nodetypes="cccccc" />
    <path
       style="fill:#280b0b;stroke:none"
       d="m 558,206.36218 12,0 0,-60 -12,0 z"
       id="path2985-3-9-6"
       inkscape:connector-curvature="0" />
    <path
       style="fill:#280b0b;stroke:none"
       d="m 570,200.36218 -42,0 0,12 36.28571,0 5.71429,-6 z"
       id="path3128-8-0-6-1"
       inkscape:connector-curvature="0"
       sodipodi:nodetypes="cccccc" />
    <path
       style="fill:#280b0b;stroke:none"
       d="M 578.47537,211.86702 570,220.36218 l -25.93755,-25.80277 8.47537,-8.49516 z"
       id="path2985-5-8"
       inkscape:connector-curvature="0" />
    <path
       style="fill:#280b0b;stroke:none"
       d="m 66,212.36218 12,0 0,-71.99999 -12,0 z"
       id="path2985-37-4"
       inkscape:connector-curvature="0" />
    <path
       style="fill:#280b0b;stroke:none"
       d="m 72,140.36219 0,12 36,0 0,-12 z"
       id="path2985-37-5-7"
       inkscape:connector-curvature="0" />
    <path
       style="fill:#280b0b;stroke:none"
       d="m 72,170.36218 0,12 18,0 0,-12 z"
       id="path2985-37-5-0-7-8"
       inkscape:connector-curvature="0" />
    <path
       inkscape:connector-curvature="0"
       style="fill:#000000;stroke:none"
       d="m 192,446.375 0,72 36,0 6,-6 0,-24 -6,-6 6,-6 0,-24 -6,-6 -36,0 z m 12,12 18,0 0,18 -18,0 0,-18 z m 0,30 18,0 0,18 -18,0 0,-18 z"
       id="path3102" />
    <path
       inkscape:connector-curvature="0"
       style="fill:#000000;stroke:none"
       d="m 246,446.375 0,72 12,0 0,-30 18,0 0,30 12,0 0,-30 -6,-6 6,-6 0,-24 -6,-6 -36,0 z m 12,12 18,0 0,18 -18,0 0,-18 z"
       id="path3110" />
    <path
       style="fill:#000000;stroke:none"
       d="m 180,458.36218 0,-12 -48,0 0,12 18,0 0,60 12,0 0,-60 z"
       id="path3114"
       inkscape:connector-curvature="0" />
    <path
       style="fill:#000000;stroke:none"
       d="m 120,464.36218 0,-12 -6,-6 -42,0 -6,6 0,30 6,6 36,0 0,18 -30,0 0,-6 -12,0 0,12 6,6 42,0 6,-6 0,-30 -6,-6 -36,0 0,-18 30,0 0,6 z"
       id="path3887"
       inkscape:connector-curvature="0"
       sodipodi:nodetypes="ccccccccccccccccccccccc" />
    <path
       inkscape:connector-curvature="0"
       style="fill:#000000;stroke:none"
       d="m 300,446.375 0,72 12,0 0,-30 24,0 6,-6 0,-30 -6,-6 -36,0 z m 12,12 18,0 0,18 -18,0 0,-18 z"
       id="path3889" />
    <path
       inkscape:connector-curvature="0"
       style="fill:#000000;stroke:none"
       d="m 360,446.375 -6,6 0,60 6,6 30,0 6,-6 0,-60 -6,-6 -30,0 z m 6,12 18,0 0,48 -18,0 0,-48 z"
       id="path3894" />
    <path
       style="fill:#000000;stroke:none"
       d="m 420,446.36218 -12,0 0,66 6,6 30,0 6,-6 0,-66 -12,0 0,60 -18,0 z"
       id="path3899"
       inkscape:connector-curvature="0" />
    <path
       style="fill:#000000;stroke:none"
       d="m 402,524.36218 0,60 12,12 24,0 12,-12 0,-60 -12,0 0,54 -6,6 -12,0 -6,-6 0,-54 z"
       id="path3901"
       inkscape:connector-curvature="0"
       sodipodi:nodetypes="ccccccccccccc" />
    <path
       style="fill:#000000;stroke:none"
       d="m 468,446.36218 -6,6 0,60 6,6 30,0 6,-6 0,-36 -18,0 0,12 6,0 0,18 -18,0 0,-48 18,0 0,6 12,0 0,-12 -6,-6 z"
       id="path3903"
       inkscape:connector-curvature="0"
       sodipodi:nodetypes="ccccccccccccccccccc" />
    <path
       sodipodi:nodetypes="ccccccccccccccccccc"
       inkscape:connector-curvature="0"
       id="path3975"
       d="m 468,524.36218 -6,6 0,60 6,6 30,0 6,-6 0,-36 -24,0 0,12 12,0 0,18 -18,0 0,-48 18,0 0,6 12,0 0,-12 -6,-6 z"
       style="fill:#000000;stroke:none" />
    <path
       style="fill:#000000;stroke:none"
       d="m 516,446.36218 0,72 12,0 0,-30 18,0 0,30 12,0 0,-30 -6,-6 6,-6 0,-30 -12,0 0,30 -18,0 0,-30 z"
       id="path3977"
       inkscape:connector-curvature="0" />
    <path
       inkscape:connector-curvature="0"
       id="path3979"
       d="m 516,524.36218 0,72 12,0 0,-30 6,0 12,12 0,18 12,0 0,-24 -12,-12 12,-12 0,-24 -12,0 0,18 -12,12 -6,0 0,-30 z"
       style="fill:#000000;stroke:none"
       sodipodi:nodetypes="cccccccccccccccccc" />
    <path
       style="fill:#000000;stroke:none"
       d="m 636,611.36218 -12,0 0,54 12,0 0,-21 12,21 12,0 -15,-27 15,-27 -12,0 -12,21 z"
       id="path3985"
       inkscape:connector-curvature="0"
       sodipodi:nodetypes="cccccccccccc" />
    <path
       inkscape:connector-curvature="0"
       id="path3987"
       d="m 516,368.36218 0,72 12,0 0,-30 12,0 6,6 0,24 12,0 0,-30 -6,-6 6,-6 0,-30 -12,0 0,24 -6,6 -12,0 0,-30 z"
       style="fill:#000000;stroke:none"
       sodipodi:nodetypes="cccccccccccccccccc" />
    <path
       style="fill:#000000;stroke:none"
       d="m 570,446.36218 12,0 0,30 18,0 0,-30 12,0 0,72 -12,0 0,-30 -18,0 0,30 -12,0 z"
       id="path3989"
       inkscape:connector-curvature="0" />
    <path
       style="fill:#000000;stroke:none"
       d="m 624,446.36218 0,66 6,6 18,0 6,-6 6,6 18,0 6,-6 0,-66 -12,0 0,60 -12,0 0,-60 -12,0 0,60 -12,0 0,-60 z"
       id="path3993"
       inkscape:connector-curvature="0" />
    <path
       inkscape:connector-curvature="0"
       style="fill:#666666;stroke:none"
       d="m 660,227.36218 -18,72 12,0 3.1875,-12 17.625,0 3.1875,12 12,0 -18,-72 -12,0 z m 6,27 5.59375,21 -11.1875,0 5.59375,-21 z"
       id="path4003" />
    <path
       id="path4010"
       d="m 90.19166,731.36218 -18,-72 12,0 12,45 12,-45 12,0 -18,72 -12,0 z"
       style="fill:#000000;stroke:none"
       inkscape:connector-curvature="0" />
    <path
       inkscape:connector-curvature="0"
       style="fill:#000000;stroke:none"
       d="m 144,659.375 18,72 12,0 11.90625,-47.625 11.90625,47.625 12,0 18,-72 -12,0 -12,45 -11.90625,-44.625 0.0937,-0.375 -0.1875,0 -11.8125,0 -0.1875,0 0.0937,0.375 L 168,704.375 l -12,-45 -12,0 z"
       id="path4014" />
    <path
       id="path4020"
       d="m 233.9994,731.36218 18,-72 12,0 11.9063,47.625 11.9062,-47.625 12,0 18,72 -12,0 -12,-45 -11.9062,44.625 0.094,0.375 -0.1875,0 -11.8125,0 -0.1875,0 0.094,-0.375 -11.9062,-44.625 -12,45 -12,0 z"
       style="fill:#000000;stroke:none"
       inkscape:connector-curvature="0" />
    <path
       inkscape:connector-curvature="0"
       id="path4026"
       d="m 624,608.36218 0,-66 6,-6 18,0 6,6 6,-6 18,0 6,6 0,66 -12,0 0,-60 -12,0 0,60 -12,0 0,-60 -12,0 0,60 z"
       style="fill:#000000;stroke:none" />
    <path
       inkscape:connector-curvature="0"
       style="fill:#000000;stroke:none"
       d="m 96,842.34936 -18,-72 12,0 12,45 12,-45 12,0 -18,72 -12,0 z"
       id="path4171" />
    <path
       style="fill:#000000;stroke:none"
       d="m 78,770.34936 0,72 12,0 0,-72 z"
       id="path4173"
       inkscape:connector-curvature="0" />
    <path
       inkscape:connector-curvature="0"
       id="path4175"
       d="m 114,770.34936 0,72 12,0 0,-72 z"
       style="fill:#000000;stroke:none" />
    <path
       inkscape:connector-curvature="0"
       style="fill:#000000;stroke:none"
       d="m 138,770.36218 0,72 12,0 0,-48 12,18 12,-18 0,48 12,0 0,-72 -12,0 -12,24 -12,-24 -12,0 z"
       id="path4177" />
    <rect
       style="opacity:0.93999999;fill:#000000;stroke:none"
       id="rect4404"
       width="12"
       height="12"
       x="396"
       y="848.36218" />
    <path
       style="opacity:0.93999999;fill:#000000;stroke:none"
       d="m 420,788.36218 0,54 12,0 0,-54 -12,0 z m 0,60 0,12 12,0 0,-12 -12,0 z"
       id="rect4404-4"
       inkscape:connector-curvature="0" />
    <path
       style="opacity:0.93999999;fill:#000000;stroke:none"
       d="m 438,788.36218 0,18 12,0 0,-6 24,0 0,24 -6,0 -12,0 0,12 0,6 12,0 0,-6 18,0 0,-12 0,-36 -12,0 -24,0 -12,0 z m 18,60 0,12 12,0 0,-12 -12,0 z"
       id="rect4404-4-8"
       inkscape:connector-curvature="0" />
    <path
       style="fill:#000000;stroke:none"
       d="m 324,788.36218 0,72 6,0 6,0 18,0 0,-12 -18,0 0,-18 24,0 0,30 12,0 0,-30 12,0 0,-12 -48,0 0,-18 30,0 0,-12 -30,0 -6,0 z"
       id="path2985-37-2"
       inkscape:connector-curvature="0"
       sodipodi:nodetypes="ccccccccccccccccccccc" />
    <path
       style="fill:#000000;stroke:none"
       d="m 552,788.36218 0,18 12,-12 0,-6 z"
       id="path4499"
       inkscape:connector-curvature="0" />
    <path
       style="fill:#000000;stroke:none"
       d="m 498,842.36218 12,0 -12,24 -12,0 z"
       id="path4501"
       inkscape:connector-curvature="0"
       sodipodi:nodetypes="ccccc" />
    <path
       style="fill:#000000;stroke:none"
       d="m 528,842.36218 12,0 -12,24 -12,0 z"
       id="path4501-2"
       inkscape:connector-curvature="0"
       sodipodi:nodetypes="ccccc" />
    <rect
       style="opacity:0.93999999;fill:#000000;stroke:none"
       id="rect4537"
       width="12"
       height="12"
       x="528"
       y="-836.36218"
       transform="scale(1,-1)" />
    <rect
       style="opacity:0.93999999;fill:#000000;stroke:none"
       id="rect4537-3"
       width="12"
       height="12"
       x="576"
       y="-824.36218"
       transform="scale(1,-1)" />
    <path
       inkscape:connector-curvature="0"
       style="fill:#000000;stroke:none"
       d="m 612,788.36218 0,72 6,0 6,0 30,0 0,-12 -30,0 0,-18 12,0 0,-12 -12,0 0,-18 30,0 0,-12 -30,0 -6,0 -6,0 z"
       id="path2985-37-7" />
    <path
       style="fill:#000000;stroke:none"
       d="m 636,764.36218 12,0 -12,18 -12,0 z"
       id="path4501-4"
       inkscape:connector-curvature="0"
       sodipodi:nodetypes="ccccc" />
    <path
       style="fill:#000000;stroke:none"
       d="M 474 896.375 L 498 932.375 L 474 968.375 L 486 968.375 L 510 932.375 L 486 896.375 L 474 896.375 z "
       id="path4501-41" />
    <path
       inkscape:connector-curvature="0"
       style="fill:#000000;stroke:none"
       d="m 492,896.36218 24,36 -24,36 12,0 24,-36 -24,-36 -12,0 z"
       id="path4501-41-2" />
    <path
       inkscape:connector-curvature="0"
       style="fill:#000000;stroke:none"
       d="m 414,896.375 -24,36 24,36 -12,0 -24,-36 24,-36 12,0 z"
       id="path4501-41-5" />
    <path
       inkscape:connector-curvature="0"
       style="fill:#000000;stroke:none"
       d="m 396,896.36218 -24,36 24,36 -12,0 -24,-36 24,-36 12,0 z"
       id="path4501-41-2-5" />
    <path
       inkscape:connector-curvature="0"
       style="fill:#000000;stroke:none"
       d="m 684,788.36218 0,72 6,0 6,0 30,0 0,-12 -30,0 0,-18 12,0 0,-12 -12,0 0,-18 30,0 0,-12 -30,0 -6,0 -6,0 z"
       id="path2985-37-7-9" />
    <path
       style="fill:#000000;stroke:none"
       d="m 702,764.36218 -12,0 12,18 12,0 z"
       id="path4501-4-2"
       inkscape:connector-curvature="0"
       sodipodi:nodetypes="ccccc" />
    <path
       inkscape:connector-curvature="0"
       style="fill:#000000;stroke:none"
       d="m 756,788.36218 0,72 6,0 6,0 30,0 0,-12 -30,0 0,-18 12,0 0,-12 -12,0 0,-18 30,0 0,-12 -30,0 -6,0 -6,0 z"
       id="path2985-37-7-9-2" />
    <path
       style="fill:#000000;stroke:none"
       d="m 786,764.36218 -12,0 12,18 12,0 z"
       id="path4501-4-2-6"
       inkscape:connector-curvature="0"
       sodipodi:nodetypes="ccccc" />
    <path
       style="fill:#000000;stroke:none"
       d="m 768,764.36218 12,0 -12,18 -12,0 z"
       id="path4501-4-0"
       inkscape:connector-curvature="0"
       sodipodi:nodetypes="ccccc" />
    <path
       style="opacity:0.93999999;fill:#000000;stroke:none"
       d="m 618,884.36218 0,12 6,0 0,60 -6,0 0,12 6,0 6,0 6,0 0,-72 0,-6 0,-6 -18,0 z"
       id="rect4731"
       inkscape:connector-curvature="0" />
    <path
       inkscape:connector-curvature="0"
       style="opacity:0.93999999;fill:#000000;stroke:none"
       d="m 606,884.36218 0,12 -6,0 0,60 6,0 0,12 -6,0 -6,0 -6,0 0,-72 0,-6 0,-6 18,0 z"
       id="rect4731-3" />
    <path
       inkscape:connector-curvature="0"
       style="opacity:0.93999999;fill:#000000;stroke:none"
       d="m 666,884.36218 0,6 -6,6 0,60.00002 6,6 0,6 -6,0 -6,0 -6,-6 0,-66.00002 0,-6 6,-6 z"
       id="rect4731-3-7"
       sodipodi:nodetypes="ccccccccccccc" />
    <path
       inkscape:connector-curvature="0"
       style="opacity:0.93999999;fill:#000000;stroke:none"
       d="m 678,884.36218 0,6 6,6 0,60.00002 -6,6 0,6 6,0 6,0 6,-6 0,-66.00002 0,-6 -6,-6 z"
       id="rect4731-3-7-6"
       sodipodi:nodetypes="ccccccccccccc" />
  </g>
</svg>
