<?xml version="1.0" encoding="UTF-8" standalone="no"?>
<!-- Created with Inkscape (http://www.inkscape.org/) -->

<svg
   xmlns:dc="http://purl.org/dc/elements/1.1/"
   xmlns:cc="http://creativecommons.org/ns#"
   xmlns:rdf="http://www.w3.org/1999/02/22-rdf-syntax-ns#"
   xmlns:svg="http://www.w3.org/2000/svg"
   xmlns="http://www.w3.org/2000/svg"
   xmlns:sodipodi="http://sodipodi.sourceforge.net/DTD/sodipodi-0.dtd"
   xmlns:inkscape="http://www.inkscape.org/namespaces/inkscape"
   width="1052.3622"
   height="744.09448"
   id="svg2"
   version="1.1"
   inkscape:version="0.48.2 r9819"
   sodipodi:docname="generale.svg">
  <defs
     id="defs4" />
  <sodipodi:namedview
     id="base"
     pagecolor="#ffffff"
     bordercolor="#666666"
     borderopacity="1.0"
     inkscape:pageopacity="0.0"
     inkscape:pageshadow="2"
     inkscape:zoom="0.60524232"
     inkscape:cx="316.47195"
     inkscape:cy="454.79117"
     inkscape:document-units="px"
     inkscape:current-layer="layer1"
     showgrid="true"
     inkscape:snap-global="true"
     inkscape:window-width="1231"
     inkscape:window-height="667"
     inkscape:window-x="2"
     inkscape:window-y="0"
     inkscape:window-maximized="0"
     inkscape:snap-bbox="false"
     showguides="true"
     inkscape:guide-bbox="true">
    <inkscape:grid
       type="xygrid"
       id="grid3967"
       empspacing="6"
       visible="true"
       enabled="true"
       snapvisiblegridlinesonly="true"
       dotted="false"
       spacingx="1px"
       spacingy="1px"
       originy="0px" />
    <sodipodi:guide
       orientation="0,1"
       position="0,726"
       id="guide3203" />
    <sodipodi:guide
       orientation="0,1"
       position="0,654"
       id="guide3205" />
    <sodipodi:guide
       orientation="0,1"
       position="0,690"
       id="guide3207" />
    <sodipodi:guide
       orientation="0,1"
       position="0,672"
       id="guide3209" />
    <sodipodi:guide
       orientation="0,1"
       position="0,618"
       id="guide3211" />
    <sodipodi:guide
       orientation="0,1"
       position="0,582"
       id="guide3213" />
    <sodipodi:guide
       orientation="0,1"
       position="0,570"
       id="guide3215" />
    <sodipodi:guide
       orientation="0,1"
       position="0,558"
       id="guide3217" />
    <sodipodi:guide
       orientation="0,1"
       position="0,546"
       id="guide3219" />
    <sodipodi:guide
       orientation="0,1"
       position="0,510"
       id="guide3221" />
    <sodipodi:guide
       orientation="0,1"
       position="0,474"
       id="guide3223" />
    <sodipodi:guide
       orientation="0,1"
       position="0,462"
       id="guide3225" />
    <sodipodi:guide
       orientation="0,1"
       position="0,450"
       id="guide3227" />
    <sodipodi:guide
       orientation="1,0"
       position="18,744"
       id="guide3534" />
    <sodipodi:guide
       orientation="1,0"
       position="90,744"
       id="guide3536" />
    <sodipodi:guide
       orientation="1,0"
       position="162,744"
       id="guide3538" />
    <sodipodi:guide
       orientation="1,0"
       position="234,744"
       id="guide3540" />
    <sodipodi:guide
       orientation="1,0"
       position="306,744"
       id="guide3542" />
    <sodipodi:guide
       orientation="1,0"
       position="378,744"
       id="guide3544" />
    <sodipodi:guide
       orientation="1,0"
       position="450,744"
       id="guide3546" />
    <sodipodi:guide
       orientation="1,0"
       position="522,744"
       id="guide3548" />
    <sodipodi:guide
       orientation="1,0"
       position="594,744"
       id="guide3554" />
    <sodipodi:guide
       orientation="1,0"
       position="666,744"
       id="guide3795" />
    <sodipodi:guide
       orientation="1,0"
       position="738,744"
       id="guide3797" />
    <sodipodi:guide
       orientation="1,0"
       position="810,744"
       id="guide3799" />
    <sodipodi:guide
       orientation="1,0"
       position="882,744"
       id="guide3801" />
    <sodipodi:guide
       orientation="1,0"
       position="954,744"
       id="guide3805" />
    <sodipodi:guide
       orientation="1,0"
       position="1026,744"
       id="guide3807" />
    <sodipodi:guide
       orientation="1,0"
       position="1098,744"
       id="guide4756" />
    <sodipodi:guide
       orientation="1,0"
       position="1170,744"
       id="guide4760" />
    <sodipodi:guide
       orientation="1,0"
       position="1242,744"
       id="guide4762" />
    <sodipodi:guide
       orientation="1,0"
       position="1314,744"
       id="guide4764" />
    <sodipodi:guide
       orientation="1,0"
       position="1386,744"
       id="guide4766" />
    <sodipodi:guide
       orientation="1,0"
       position="1458,744"
       id="guide4768" />
    <sodipodi:guide
       orientation="1,0"
       position="1602,744"
       id="guide4958" />
    <sodipodi:guide
       orientation="1,0"
       position="1530,744"
       id="guide4960" />
    <sodipodi:guide
       orientation="1,0"
       position="1662,744"
       id="guide4962" />
    <sodipodi:guide
       orientation="1,0"
       position="1734,744"
       id="guide4964" />
    <sodipodi:guide
       orientation="1,0"
       position="1806,744"
       id="guide5017" />
    <sodipodi:guide
       orientation="1,0"
       position="1878,744"
       id="guide5041" />
    <sodipodi:guide
       orientation="0,1"
       position="0,414"
       id="guide66626" />
    <sodipodi:guide
       orientation="0,1"
       position="0,378"
       id="guide66628" />
    <sodipodi:guide
       orientation="0,1"
       position="0,360"
       id="guide66630" />
    <sodipodi:guide
       orientation="0,1"
       position="0,342"
       id="guide66632" />
  </sodipodi:namedview>
  <metadata
     id="metadata7">
    <rdf:RDF>
      <cc:Work
         rdf:about="">
        <dc:format>image/svg+xml</dc:format>
        <dc:type
           rdf:resource="http://purl.org/dc/dcmitype/StillImage" />
        <dc:title></dc:title>
      </cc:Work>
    </rdf:RDF>
  </metadata>
  <g
     inkscape:label="ALPHA_26"
     inkscape:groupmode="layer"
     id="layer1"
     transform="translate(0,-308.2677)"
     style="display:inline">
    <path
       inkscape:connector-curvature="0"
       style="opacity:0.93999999;fill:#000000;stroke:none"
       d="m 36,326.36218 -18,72 12,0 3,-12 18,0 3,12 12,0 -17.875,-72 -12.125,0 z m 6,27 6,21 -12,0 6,-21 z"
       id="path3004" />
    <path
       inkscape:connector-curvature="0"
       style="fill:#000000;stroke:none"
       d="m 90,326.36218 0,72 36,0 6,-6 0,-24 -6,-6 6,-6 0,-24 -6,-6 -36,0 z m 12,12 18,0 0,18 -18,0 0,-18 z m 0,30 18,0 0,18 -18,0 0,-18 z"
       id="path3102" />
    <path
       inkscape:connector-curvature="0"
       style="fill:#280b0b;stroke:none"
       d="m 167.9375,326.36218 -5.9375,6 0,60 6,6 36,0 6,-6 0,-6 0,-6 -12,0 0,6 -24,0 0,-48 24,0 0,6 12,0 0,-12 -5.28125,-6 z"
       id="path2985-5-9"
       sodipodi:nodetypes="cccccccccccccccccc" />
    <path
       style="fill:#000000;stroke:none"
       d="m 234,326.36219 0,71.99999 42,0 6,-6 0,-59.99999 -6,-6 z m 12,12 24,0 0,47.99999 -24,0 z"
       id="path3596"
       inkscape:connector-curvature="0"
       sodipodi:nodetypes="cccccccccccc" />
    <path
       style="fill:#280b0b;stroke:none"
       d="m 306,326.36218 0,72 42,0 0,-12 -30,0 0,-18 12,0 0,-12 -12,0 0,-18 30,0 0,-12 z"
       id="path2985-37"
       inkscape:connector-curvature="0"
       sodipodi:nodetypes="ccccccccccccc" />
    <path
       style="fill:#000000;stroke:none"
       d="m 420,326.36218 0,12 -30,0 0,18 12,0 0,12 -12,0 0,30 -12,0 0,-72 z"
       id="path3695"
       inkscape:connector-curvature="0" />
    <path
       style="fill:#000000;stroke:none"
       d="m 456,434.36218 -6,6 0,60 6,6 30,0 6,-6 0,-36 -18,0 0,12 6,0 0,18 -18,0 0,-48 18,0 0,6 12,0 0,-12 -6,-6 z"
       id="path3903"
       inkscape:connector-curvature="0"
       sodipodi:nodetypes="ccccccccccccccccccc" />
    <path
       style="fill:#000000;stroke:none;display:inline"
       d="m 456,326.36218 -6,6 0,60 6,6 36,0 6,-6 0,-36 -24,0 0,12 12,0 0,18 -24,0 0,-48 24,0 0,6 12,0 0,-12 -6,-6 z"
       id="path3903-6"
       inkscape:connector-curvature="0"
       sodipodi:nodetypes="ccccccccccccccccccc" />
    <path
       style="fill:#000000;stroke:none"
       d="m 522,326.36218 12,0 0,30 18,0 0,-30 12,0 0,72 -12,0 0,-30 -18,0 0,30 -12,0 z"
       id="path3989"
       inkscape:connector-curvature="0" />
    <path
       style="fill:#000000;stroke:none;stroke-width:1px;stroke-linecap:butt;stroke-linejoin:miter;stroke-opacity:1"
       d="m 606,18.094482 -12,0 0,72 12,0 z"
       id="path3769"
       inkscape:connector-curvature="0"
       transform="translate(0,308.2677)" />
    <path
       inkscape:connector-curvature="0"
       id="path3979"
       d="m 738,326.36218 0,72 12,0 0,-30 6,0 12,12 0,18 12,0 0,-24 -12,-12 12,-12 0,-24 -12,0 0,18 -12,12 -6,0 0,-30 z"
       style="fill:#000000;stroke:none"
       sodipodi:nodetypes="cccccccccccccccccc" />
    <path
       inkscape:connector-curvature="0"
       id="path3987"
       d="m 738,434.36218 0,72 12,0 0,-30 12,0 6,6 0,24 12,0 0,-30 -6,-6 6,-6 0,-30 -12,0 0,24 -6,6 -12,0 0,-30 z"
       style="fill:#000000;stroke:none"
       sodipodi:nodetypes="cccccccccccccccccc" />
    <path
       style="fill:#000000;stroke:none"
       d="m 810,434.36218 0,72 12,0 0,-30 18,0 0,30 12,0 0,-30 -6,-6 6,-6 0,-30 -12,0 0,30 -18,0 0,-30 z"
       id="path3977"
       inkscape:connector-curvature="0" />
    <path
       sodipodi:nodetypes="cccccccccccccccccc"
       style="fill:#000000;stroke:none"
       d="m 738,530.36218 0,72 12,0 0,-30 18,0 6,6 0,24 12,0 0,-30 -6,-6 6,-6 0,-30 -12,0 0,24 -6,6 -18,0 0,-30 z"
       id="path4721"
       inkscape:connector-curvature="0" />
    <path
       style="fill:#000000;stroke:none"
       d="m 810,326.36218 0,72 12,0 12,0 12,0 12,0 0,-12 -36,0 0,-60 -12,0 z"
       id="path4767"
       inkscape:connector-curvature="0" />
    <g
       id="g4481"
       transform="translate(804,-447.01282)">
      <path
         inkscape:connector-curvature="0"
         id="path4173"
         d="m 78,773.375 0,72 12,0 0,-72 -12,0 z m 36,0 0,72 12,0 0,-72 -12,0 z"
         style="fill:#000000;stroke:none" />
      <path
         id="path4171"
         d="m 96,845.36218 -18,-72 12,0 12,45 12,-45 12,0 -18,72 -12,0 z"
         style="fill:#000000;stroke:none"
         inkscape:connector-curvature="0" />
    </g>
    <path
       id="path4020"
       d="m 882,506.36218 18,-72 12,0 11.9063,47.625 11.9062,-47.625 12,0 18,72 -12,0 -12,-45 -11.9062,44.625 0.094,0.375 -0.1875,0 -11.8125,0 -0.1875,0 0.094,-0.375 -11.9062,-44.625 -12,45 -12,0 z"
       style="fill:#000000;stroke:none"
       inkscape:connector-curvature="0" />
    <g
       id="g4492"
       transform="translate(822,186)">
      <path
         style="fill:#280b0b;stroke:none"
         d="m 132,140.36218 12,0 0,72 -12,0 z"
         id="path4494"
         inkscape:connector-curvature="0" />
      <path
         style="fill:#280b0b;stroke:none"
         d="m 168,140.36218 12,0 0,72 -12,0 z"
         id="path4496"
         inkscape:connector-curvature="0" />
      <path
         style="fill:#280b0b;stroke:none"
         d="m 144,140.36218 24,48 0,24 -24,-48 z"
         id="path4498"
         inkscape:connector-curvature="0" />
    </g>
    <path
       sodipodi:nodetypes="cccccccccccccc"
       id="path4485"
       d="m 1032,326.36218 -6,6 0,60 6,6 36,0 6,-6 0,-60 -6,-6 z m 6,12 24,0 0,48 -24,0 z"
       style="fill:#000000;stroke:none"
       inkscape:connector-curvature="0" />
    <path
       sodipodi:nodetypes="cccccccccccccc"
       id="path4485-1"
       d="m 1032,434.36218 -6,6 0,60 6,6 30,0 6,-6 0,-60 -6,-6 z m 6,12 18,0 0,48 -18,0 z"
       style="fill:#000000;stroke:none"
       inkscape:connector-curvature="0" />
    <path
       inkscape:connector-curvature="0"
       style="fill:#000000;stroke:none"
       d="m 1098,326.36218 0,72 12,0 0,-30 24,0 6,-6 0,-30 -6,-6 -36,0 z m 12,12 18,0 0,18 -18,0 0,-18 z"
       id="path3889" />
    <path
       style="fill:#280b0b;stroke:none"
       d="m 1176,326.36218 -6,5.1875 0,61.8125 6,5 33.9688,0 8.0312,8 8.4688,-8.5 -8.4688,-8.4375 0,-57.0625 -5.7187,-6 z m 6,12 24,0 0,39.125 -5.4687,-5.4375 -8.4688,8.5 5.8438,5.8125 -15.9063,0 z"
       id="path3128-85-4"
       inkscape:connector-curvature="0"
       sodipodi:nodetypes="ccccccccccccccccccc" />
    <path
       inkscape:connector-curvature="0"
       style="fill:#000000;stroke:none"
       d="m 1242,326.36218 0,72 12,0 0,-30 18,0 0,30 12,0 0,-30 -6,-6 6,-6 0,-24 -6,-6 -36,0 z m 12,12 18,0 0,18 -18,0 0,-18 z"
       id="path3110" />
    <path
       style="fill:#000000;stroke:none"
       d="m 1368,344.36218 0,-12 -6,-6 -42,0 -6,6 0,30 6,6 36,0 0,18 -30,0 0,-6 -12,0 0,12 6,6 42,0 6,-6 0,-30 -6,-6 -36,0 0,-18 30,0 0,6 z"
       id="path3887"
       inkscape:connector-curvature="0"
       sodipodi:nodetypes="ccccccccccccccccccccccc" />
    <path
       style="fill:#000000;stroke:none"
       d="m 1434,338.36218 0,-12 -48,0 0,12 18,0 0,60 12,0 0,-60 z"
       id="path3114"
       inkscape:connector-curvature="0" />
    <path
       style="fill:#000000;stroke:none"
       d="m 1470,434.36218 -12,0 0,66 6,6 30,0 6,-6 0,-66 -12,0 0,60 -18,0 z"
       id="path3899"
       inkscape:connector-curvature="0" />
    <path
       style="fill:#000000;stroke:none"
       d="m 1470,326.36218 -12,0 0,66 6,6 36,0 6,-6 0,-66 -12,0 0,60 -24,0 z"
       id="path3899-8"
       inkscape:connector-curvature="0"
       sodipodi:nodetypes="ccccccccccc" />
    <path
       id="path4010"
       d="m 1548,398.36218 -18,-72 12,0 12,45 12,-45 12,0 -18,72 -12,0 z"
       style="fill:#000000;stroke:none"
       inkscape:connector-curvature="0" />
    <path
       inkscape:connector-curvature="0"
       style="fill:#000000;stroke:none"
       d="m 1601.9994,326.36218 18,72 12,0 11.9063,-47.625 11.9062,47.625 12,0 18,-72 -12,0 -12,45 -11.9062,-44.625 0.094,-0.375 -0.1875,0 -11.8125,0 -0.1875,0 0.094,0.375 -11.9062,44.625 -12,-45 -12,0 z"
       id="path4014" />
    <path
       style="fill:#000000;stroke:none"
       d="m 1734,326.36218 18,36 -18,36 12,0 12,-24 12,24 12,0 -18,-36 18,-36 -12,0 -12,24 -12,-24 -12,0 z"
       id="path3797"
       inkscape:connector-curvature="0" />
    <path
       style="fill:#000000;stroke:none"
       d="m 1806,326.36218 18,36 -18,36 12,0 18,-36 18,-36 -12,0 -12,24 -12,-24 -12,0 z"
       id="path3797-6"
       inkscape:connector-curvature="0" />
    <path
       inkscape:connector-curvature="0"
       style="fill:#000000;stroke:none"
       d="m 1806,434.36218 18,36 0,36 12,0 0,-36 18,-36 -12,0 -12,24 -12,-24 -12,0 z"
       id="path3797-6-1" />
    <path
       style="fill:#280b0b;stroke:none"
       d="m 666,326.36218 0,12 30,0 0,48 -18,0 0,-6 -12,0 0,12 6,6 29.90625,0 0.0937,0 6,-6 0,-66 z"
       id="path2985-5-3"
       inkscape:connector-curvature="0"
       sodipodi:nodetypes="cccccccccccccc" />
    <path
       style="fill:#280b0b;stroke:none"
       d="m 1878,326.36218 0,12 39,0 -39,39 c 0,5 0,10 0,15 l 6,6 42,0 0,-12 -39,0 39,-39 c 0,-5 0,-10 0,-15 l -6,-6 z"
       id="path3128-8-87"
       inkscape:connector-curvature="0"
       sodipodi:nodetypes="ccccccccccccc" />
    <path
       style="fill:#280b0b;stroke:none"
       d="m 1176,434.36218 -6,5.1875 0,60.8125 6,6 36.2813,0 5.7187,-6 6,6 0,-12 -6,-6 0,-48 -6,-6 z m 6,12 24,0 0,30 -6,-6 0,12 6,6 0,6 -24,0 z"
       id="path3128-85-4-7"
       inkscape:connector-curvature="0"
       sodipodi:nodetypes="ccccccccccccccccccccc" />
    <path
       style="fill:#280b0b;stroke:none"
       d="m 1248,434.36218 -6,5.1875 0,60.8125 6,6 36.2813,0 5.6562,-5.9375 6.0625,0.0625 -5.8437,-12.0625 -0.1563,0 0,-48.0625 -6,-6 z m 6,12 24,0 0,35.8125 -6,-0.15625 5.6563,12.15625 0.3437,0 0,0.1875 -24,0 z"
       id="path3128-85-4-2"
       inkscape:connector-curvature="0"
       sodipodi:nodetypes="ccccccccccccccccccccc" />
    <path
       style="fill:#000000;stroke:none"
       d="m 1602,434.36218 0,66 6,6 18,0 6,-6 6,6 18,0 6,-6 0,-66 -12,0 0,60 -12,0 0,-60 -12,0 0,60 -12,0 0,-60 z"
       id="path3993"
       inkscape:connector-curvature="0" />
    <path
       inkscape:connector-curvature="0"
       style="fill:#000000;stroke:none"
       d="m 42,638.36218 -24,36 24,36 12,0 -24,-36 24,-36 -12,0 z m 18,0 -24,36 24,36 12,0 -24,-36 24,-36 -12,0 z"
       id="path4501-41-5" />
    <path
       inkscape:connector-curvature="0"
       style="fill:#000000;stroke:none;display:inline"
       d="m 120,710.36218 24,-36 -24,-36 -12,0 24,36 -24,36 12,0 z m -18,0 24,-36 -24,-36 -12,0 24,36 -24,36 12,0 z"
       id="path4501-41-5-9" />
    <path
       inkscape:connector-curvature="0"
       style="opacity:0.93999999;fill:#000000;stroke:none"
       d="m 180,638.36218 0,12 -6,0 0,48 6,0 0,12 -18,0 0,-72 z"
       id="rect4731-3"
       sodipodi:nodetypes="ccccccccc" />
    <path
       inkscape:connector-curvature="0"
       style="opacity:0.93999999;fill:#000000;stroke:none;display:inline"
       d="m 234,710.36218 0,-12 6,0 0,-48 -6,0 0,-12 18,0 0,72 z"
       id="rect4731-3-1"
       sodipodi:nodetypes="ccccccccc" />
    <path
       inkscape:connector-curvature="0"
       style="opacity:0.93999999;fill:#000000;stroke:none"
       d="m 324,638.36218 0,6 -6,6 0,48.00002 6,6 0,6 -12,0 -6,-6 0,-54.00002 0,-6 6,-6 z"
       id="rect4731-3-7"
       sodipodi:nodetypes="cccccccccccc" />
    <path
       inkscape:connector-curvature="0"
       style="opacity:0.93999999;fill:#000000;stroke:none;display:inline"
       d="m 378,710.3622 0,-6 6,-6 0,-48.00002 -6,-6 0,-6 12,0 6,6 0,54.00002 0,6 -6,6 z"
       id="rect4731-3-7-2"
       sodipodi:nodetypes="cccccccccccc" />
    <path
       style="fill:#000000;stroke:none"
       d="m 450,638.36218 0,72 6,0 6,0 18,0 0,-12 -18,0 0,-18 24,0 0,30 12,0 0,-30 12,0 0,-12 -48,0 0,-18 30,0 0,-12 -30,0 -6,0 z"
       id="path2985-37-2"
       inkscape:connector-curvature="0"
       sodipodi:nodetypes="ccccccccccccccccccccc" />
    <rect
       style="opacity:0.93999999;fill:#000000;stroke:none"
       id="rect4404"
       width="12"
       height="12"
       x="522"
       y="698.36218" />
    <path
       style="opacity:0.93999999;fill:#000000;stroke:none"
       d="m 594,638.36218 0,54 12,0 0,-54 -12,0 z m 0,60 0,12 12,0 0,-12 -12,0 z"
       id="rect4404-4"
       inkscape:connector-curvature="0" />
    <path
       style="opacity:0.93999999;fill:#000000;stroke:none"
       d="m 666,638.36218 0,18 12,0 0,-6 24,0 0,24 -18,0 0,18 12,0 0,-6 18,0 0,-12 0,-36 z m 18,60 0,12 12,0 0,-12 z"
       id="rect4404-4-8"
       inkscape:connector-curvature="0"
       sodipodi:nodetypes="ccccccccccccccccccc" />
    <path
       style="fill:#000000;stroke:none"
       d="m 750,692.36218 12,0 -12,24 -12,0 z"
       id="path4501"
       inkscape:connector-curvature="0"
       sodipodi:nodetypes="ccccc" />
    <path
       inkscape:connector-curvature="0"
       style="fill:#000000;stroke:none"
       d="m 822,674.36218 0,12 12,0 0,-12 -12,0 z m 0,18 -12,24 12,0 12,-24 -12,0 z"
       id="path4501-2" />
    <path
       style="fill:#000000;stroke:none"
       d="m 882,638.36218 0,18 12,-12 0,-6 z"
       id="path4499"
       inkscape:connector-curvature="0" />
    <rect
       style="opacity:0.93999999;fill:#000000;stroke:none"
       id="rect4537-3"
       width="12"
       height="12"
       x="954"
       y="-680.36218"
       transform="scale(1,-1)" />
    <path
       inkscape:connector-curvature="0"
       style="fill:#000000;stroke:none"
       d="m 1026,638.36218 0,72 6,0 6,0 30,0 0,-12 -30,0 0,-18 12,0 0,-12 -12,0 0,-18 30,0 0,-12 -30,0 -6,0 -6,0 z"
       id="path2985-37-7" />
    <path
       style="fill:#000000;stroke:none"
       d="m 1050,614.36218 12,0 -12,18 -12,0 z"
       id="path4501-4"
       inkscape:connector-curvature="0"
       sodipodi:nodetypes="ccccc" />
    <path
       inkscape:connector-curvature="0"
       style="fill:#000000;stroke:none"
       d="m 1098,638.36218 0,72 6,0 6,0 30,0 0,-12 -30,0 0,-18 12,0 0,-12 -12,0 0,-18 30,0 0,-12 -30,0 -6,0 -6,0 z"
       id="path2985-37-7-9" />
    <path
       style="fill:#000000;stroke:none"
       d="m 1116,614.36218 -12,0 12,18 12,0 z"
       id="path4501-4-2"
       inkscape:connector-curvature="0"
       sodipodi:nodetypes="ccccc" />
    <path
       inkscape:connector-curvature="0"
       style="fill:#000000;stroke:none"
       d="m 1170,638.36218 0,72 6,0 6,0 30,0 0,-12 -30,0 0,-18 12,0 0,-12 -12,0 0,-18 30,0 0,-12 -30,0 -6,0 -6,0 z"
       id="path2985-37-7-9-2" />
    <path
       style="fill:#000000;stroke:none"
       d="m 1200,614.36218 -12,0 12,18 12,0 z"
       id="path4501-4-2-6"
       inkscape:connector-curvature="0"
       sodipodi:nodetypes="ccccc" />
    <path
       style="fill:#000000;stroke:none"
       d="m 1182,614.36218 12,0 -12,18 -12,0 z"
       id="path4501-4-0"
       inkscape:connector-curvature="0"
       sodipodi:nodetypes="ccccc" />
  </g>
</svg>
