<?xml version="1.0" encoding="UTF-8" standalone="no"?>
<!-- Created with Inkscape (http://www.inkscape.org/) -->

<svg
   xmlns:dc="http://purl.org/dc/elements/1.1/"
   xmlns:cc="http://creativecommons.org/ns#"
   xmlns:rdf="http://www.w3.org/1999/02/22-rdf-syntax-ns#"
   xmlns:svg="http://www.w3.org/2000/svg"
   xmlns="http://www.w3.org/2000/svg"
   xmlns:sodipodi="http://sodipodi.sourceforge.net/DTD/sodipodi-0.dtd"
   xmlns:inkscape="http://www.inkscape.org/namespaces/inkscape"
   width="744.09448819"
   height="1052.3622047"
   id="svg2"
   version="1.1"
   inkscape:version="0.48.2 r9819"
   sodipodi:docname="grilles.svg">
  <defs
     id="defs4" />
  <sodipodi:namedview
     id="base"
     pagecolor="#ffffff"
     bordercolor="#666666"
     borderopacity="1.0"
     inkscape:pageopacity="0.0"
     inkscape:pageshadow="2"
     inkscape:zoom="2.8"
     inkscape:cx="434.16896"
     inkscape:cy="739.92896"
     inkscape:document-units="px"
     inkscape:current-layer="layer1"
     showgrid="true"
     inkscape:snap-global="true"
     inkscape:window-width="1196"
     inkscape:window-height="715"
     inkscape:window-x="32"
     inkscape:window-y="40"
     inkscape:window-maximized="0">
    <inkscape:grid
       type="xygrid"
       id="grid3967"
       empspacing="6"
       visible="true"
       enabled="true"
       snapvisiblegridlinesonly="true"
       dotted="false"
       spacingx="1px"
       spacingy="1px" />
  </sodipodi:namedview>
  <metadata
     id="metadata7">
    <rdf:RDF>
      <cc:Work
         rdf:about="">
        <dc:format>image/svg+xml</dc:format>
        <dc:type
           rdf:resource="http://purl.org/dc/dcmitype/StillImage" />
        <dc:title />
      </cc:Work>
    </rdf:RDF>
  </metadata>
  <g
     inkscape:label="Layer 1"
     inkscape:groupmode="layer"
     id="layer1">
    <path
       style="fill:#280b0b;stroke:none;stroke-width:1px;stroke-linecap:butt;stroke-linejoin:miter;stroke-opacity:1"
       d="m 222,200.36218 12,0 0,72 -12,0 z"
       id="path2985"
       inkscape:connector-curvature="0" />
    <path
       style="fill:#280b0b;stroke:none"
       d="m 258,200.36218 12,0 0,72 -12,0 z"
       id="path2985-2"
       inkscape:connector-curvature="0" />
    <path
       style="fill:#280b0b;stroke:none;stroke-width:1px;stroke-linecap:butt;stroke-linejoin:miter;stroke-opacity:1"
       d="m 234,200.36218 24,48 0,24 -24,-48 z"
       id="path3005"
       inkscape:connector-curvature="0" />
    <path
       style="fill:#280b0b;stroke:none"
       d="m 294,200.36219 12,0 0,71.99999 -12,0 z"
       id="path2985-5"
       inkscape:connector-curvature="0" />
    <path
       style="fill:#280b0b;stroke:none"
       d="m 330,206.36218 12,0 0,60 -12,0 z"
       id="path2985-5-9"
       inkscape:connector-curvature="0" />
    <path
       style="fill:#280b0b;stroke:none"
       d="m 330,212.36218 0,-6 5.92857,-6 36.78572,0 5.28571,6 0,6 z"
       id="path2985-5-9-7"
       inkscape:connector-curvature="0"
       sodipodi:nodetypes="ccccccc" />
    <path
       style="fill:#280b0b;stroke:none"
       d="m 330,266.36218 0,-6 48,0 0,6 -6,6 -36,0 z"
       id="path2985-5-9-7-8"
       inkscape:connector-curvature="0"
       sodipodi:nodetypes="ccccccc" />
    <path
       style="fill:#280b0b;stroke:none"
       d="m 366,254.36218 12,0 0,12 -12,0 z"
       id="path2985-5-9-7-8-9"
       inkscape:connector-curvature="0" />
    <path
       style="fill:#280b0b;stroke:none"
       d="m 366,206.36218 12,0 0,12 -12,0 z"
       id="path2985-5-9-7-8-9-8"
       inkscape:connector-curvature="0" />
    <path
       style="fill:#280b0b;stroke:none"
       d="m 402,272.36218 0,-72 12,0 0,72 z"
       id="path3128"
       inkscape:connector-curvature="0" />
    <path
       style="fill:#280b0b;stroke:none"
       d="m 450,212.36218 -42,0 0,-12 36.28571,0 5.71429,6 z"
       id="path3128-8"
       inkscape:connector-curvature="0"
       sodipodi:nodetypes="cccccc" />
    <path
       style="fill:#280b0b;stroke:none"
       d="m 438,266.36218 12,0 0,-60 -12,0 z"
       id="path2985-3"
       inkscape:connector-curvature="0" />
    <path
       style="fill:#280b0b;stroke:none"
       d="m 450,260.36218 -42,0 0,12 36.28571,0 5.71429,-6 z"
       id="path3128-8-0"
       inkscape:connector-curvature="0"
       sodipodi:nodetypes="cccccc" />
    <path
       style="fill:#280b0b;stroke:none"
       d="m 474,272.36218 12,0 0,-72 -12,0 z"
       id="path2985-37"
       inkscape:connector-curvature="0" />
    <path
       style="fill:#280b0b;stroke:none"
       d="m 480,200.36218 0,12 36,0 0,-12 z"
       id="path2985-37-5"
       inkscape:connector-curvature="0" />
    <path
       style="fill:#280b0b;stroke:none"
       d="m 480,260.36218 0,12 36,0 0,-12 z"
       id="path2985-37-5-0"
       inkscape:connector-curvature="0" />
    <path
       style="fill:#280b0b;stroke:none"
       d="m 480,230.36218 0,12 18,0 0,-12 z"
       id="path2985-37-5-0-7"
       inkscape:connector-curvature="0" />
    <path
       style="fill:#280b0b;stroke:none"
       d="m 546,272.36218 -6,-5 0,-61.78571 6,-5.21429 6,0 0,72 z"
       id="path3128-85"
       inkscape:connector-curvature="0"
       sodipodi:nodetypes="ccccccc" />
    <path
       style="fill:#280b0b;stroke:none"
       d="m 588,212.36218 -42,0 0,-12 36.28571,0 5.71429,6 z"
       id="path3128-8-8"
       inkscape:connector-curvature="0"
       sodipodi:nodetypes="cccccc" />
    <path
       style="fill:#280b0b;stroke:none"
       d="m 576,266.36218 12,0 0,-60 -12,0 z"
       id="path2985-3-9"
       inkscape:connector-curvature="0" />
    <path
       style="fill:#280b0b;stroke:none"
       d="m 588,260.36218 -42,0 0,12 36.28571,0 5.71429,-6 z"
       id="path3128-8-0-6"
       inkscape:connector-curvature="0"
       sodipodi:nodetypes="cccccc" />
    <path
       style="fill:#280b0b;stroke:none"
       d="m 618,272.36218 -6,-5 0,-61.78571 6,-5.21429 6,0 0,72 z"
       id="path3128-85-4"
       inkscape:connector-curvature="0"
       sodipodi:nodetypes="ccccccc" />
    <path
       style="fill:#280b0b;stroke:none"
       d="m 660,212.36218 -42,0 0,-12 36.28571,0 5.71429,6 z"
       id="path3128-8-8-8"
       inkscape:connector-curvature="0"
       sodipodi:nodetypes="cccccc" />
    <path
       style="fill:#280b0b;stroke:none"
       d="m 648,266.36218 12,0 0,-60 -12,0 z"
       id="path2985-3-9-6"
       inkscape:connector-curvature="0" />
    <path
       style="fill:#280b0b;stroke:none"
       d="m 660,260.36218 -42,0 0,12 36.28571,0 5.71429,-6 z"
       id="path3128-8-0-6-1"
       inkscape:connector-curvature="0"
       sodipodi:nodetypes="cccccc" />
    <path
       style="fill:#280b0b;stroke:none"
       d="M 668.47537,271.86702 660,280.36218 l -25.93755,-25.80277 8.47537,-8.49516 z"
       id="path2985-5-8"
       inkscape:connector-curvature="0" />
    <path
       style="fill:#280b0b;stroke:none"
       d="m 156,272.36218 12,0 0,-71.99999 -12,0 z"
       id="path2985-37-4"
       inkscape:connector-curvature="0" />
    <path
       style="fill:#280b0b;stroke:none"
       d="m 162,200.36219 0,12 36,0 0,-12 z"
       id="path2985-37-5-7"
       inkscape:connector-curvature="0" />
    <path
       style="fill:#280b0b;stroke:none"
       d="m 162,230.36218 0,12 18,0 0,-12 z"
       id="path2985-37-5-0-7-8"
       inkscape:connector-curvature="0" />
    <path
       style="fill:#280b0b;stroke:none"
       d="m 348,344.36218 12,0 0,12 -12,0 z"
       id="path2985-5-0"
       inkscape:connector-curvature="0" />
    <path
       style="fill:#280b0b;stroke:none"
       d="m 330,278.36218 12,0 0,12 -12,0 z"
       id="path2985-5-0-0"
       inkscape:connector-curvature="0"
       inkscape:transform-center-x="-6"
       inkscape:transform-center-y="29.999997" />
    <path
       style="fill:#280b0b;stroke:none"
       d="m 372,278.36218 12,0 0,12 -12,0 z"
       id="path2985-5-0-7"
       inkscape:connector-curvature="0"
       inkscape:transform-center-x="24"
       inkscape:transform-center-y="41.999997" />
    <path
       style="fill:#280b0b;stroke:none"
       d="M 328.14296,281.95351 339.28645,277.50125 366,344.36218 354.85651,348.81444 z"
       id="path2985-5-1"
       inkscape:connector-curvature="0" />
  </g>
</svg>
