<?xml version="1.0" encoding="utf-8"?>
<!-- Generator: Adobe Illustrator 13.0.2, SVG Export Plug-In . SVG Version: 6.00 Build 14948)  -->
<!DOCTYPE svg PUBLIC "-//W3C//DTD SVG 1.1//EN" "http://www.w3.org/Graphics/SVG/1.1/DTD/svg11.dtd">
<svg version="1.1"
	 id="svg2" xmlns:dc="http://purl.org/dc/elements/1.1/" sodipodi:docname="generale.svg" xmlns:rdf="http://www.w3.org/1999/02/22-rdf-syntax-ns#" xmlns:cc="http://creativecommons.org/ns#" xmlns:sodipodi="http://sodipodi.sourceforge.net/DTD/sodipodi-0.dtd" xmlns:inkscape="http://www.inkscape.org/namespaces/inkscape" inkscape:version="0.48.2 r9819" xmlns:svg="http://www.w3.org/2000/svg"
	 xmlns="http://www.w3.org/2000/svg" xmlns:xlink="http://www.w3.org/1999/xlink" x="0px" y="0px" width="1052.363px"
	 height="744.094px" viewBox="0 0 1052.363 744.094" enable-background="new 0 0 1052.363 744.094" xml:space="preserve">
<sodipodi:namedview  inkscape:window-maximized="0" id="base" showguides="true" inkscape:guide-bbox="true" inkscape:cy="154.66964" inkscape:document-units="px" showgrid="true" inkscape:zoom="1.2104846" inkscape:cx="549.24414" borderopacity="1.0" inkscape:current-layer="layer1" inkscape:pageopacity="0.0" inkscape:snap-global="true" pagecolor="#ffffff" inkscape:window-y="31" inkscape:snap-bbox="false" inkscape:window-height="667" bordercolor="#666666" inkscape:pageshadow="2" inkscape:window-x="241" inkscape:window-width="1231">
	
		<inkscape:grid  snapvisiblegridlinesonly="true" type="xygrid" dotted="false" originy="0px" id="grid3967" visible="true" enabled="true" empspacing="6" spacingy="1px" spacingx="1px">
		</inkscape:grid>
	<sodipodi:guide  id="guide3203" position="0,726" orientation="0,1"></sodipodi:guide>
	<sodipodi:guide  id="guide3205" position="0,654" orientation="0,1"></sodipodi:guide>
	<sodipodi:guide  id="guide3207" position="0,690" orientation="0,1"></sodipodi:guide>
	<sodipodi:guide  id="guide3209" position="0,672" orientation="0,1"></sodipodi:guide>
	<sodipodi:guide  id="guide3211" position="0,618" orientation="0,1"></sodipodi:guide>
	<sodipodi:guide  id="guide3213" position="0,582" orientation="0,1"></sodipodi:guide>
	<sodipodi:guide  id="guide3215" position="0,570" orientation="0,1"></sodipodi:guide>
	<sodipodi:guide  id="guide3217" position="0,558" orientation="0,1"></sodipodi:guide>
	<sodipodi:guide  id="guide3219" position="0,546" orientation="0,1"></sodipodi:guide>
	<sodipodi:guide  id="guide3221" position="0,510" orientation="0,1"></sodipodi:guide>
	<sodipodi:guide  id="guide3223" position="0,474" orientation="0,1"></sodipodi:guide>
	<sodipodi:guide  id="guide3225" position="0,462" orientation="0,1"></sodipodi:guide>
	<sodipodi:guide  id="guide3227" position="1236,450" orientation="0,1"></sodipodi:guide>
	<sodipodi:guide  id="guide3534" position="18,744" orientation="1,0"></sodipodi:guide>
	<sodipodi:guide  id="guide3536" position="90,744" orientation="1,0"></sodipodi:guide>
	<sodipodi:guide  id="guide3538" position="162,744" orientation="1,0"></sodipodi:guide>
	<sodipodi:guide  id="guide3540" position="234,744" orientation="1,0"></sodipodi:guide>
	<sodipodi:guide  id="guide3542" position="306,744" orientation="1,0"></sodipodi:guide>
	<sodipodi:guide  id="guide3544" position="378,744" orientation="1,0"></sodipodi:guide>
	<sodipodi:guide  id="guide3546" position="450,744" orientation="1,0"></sodipodi:guide>
	<sodipodi:guide  id="guide3548" position="522,744" orientation="1,0"></sodipodi:guide>
	<sodipodi:guide  id="guide3554" position="594,744" orientation="1,0"></sodipodi:guide>
	<sodipodi:guide  id="guide3795" position="666,744" orientation="1,0"></sodipodi:guide>
	<sodipodi:guide  id="guide3797" position="738,744" orientation="1,0"></sodipodi:guide>
	<sodipodi:guide  id="guide3799" position="810,744" orientation="1,0"></sodipodi:guide>
	<sodipodi:guide  id="guide3801" position="882,744" orientation="1,0"></sodipodi:guide>
	<sodipodi:guide  id="guide3805" position="954,744" orientation="1,0"></sodipodi:guide>
	<sodipodi:guide  id="guide3807" position="1026,744" orientation="1,0"></sodipodi:guide>
	<sodipodi:guide  id="guide4756" position="1098,744" orientation="1,0"></sodipodi:guide>
	<sodipodi:guide  id="guide4760" position="1170,744" orientation="1,0"></sodipodi:guide>
	<sodipodi:guide  id="guide4762" position="1242,744" orientation="1,0"></sodipodi:guide>
	<sodipodi:guide  id="guide4764" position="1314,744" orientation="1,0"></sodipodi:guide>
	<sodipodi:guide  id="guide4766" position="1386,744" orientation="1,0"></sodipodi:guide>
	<sodipodi:guide  id="guide4768" position="1458,744" orientation="1,0"></sodipodi:guide>
	<sodipodi:guide  id="guide4958" position="1602,744" orientation="1,0"></sodipodi:guide>
	<sodipodi:guide  id="guide4960" position="1530,744" orientation="1,0"></sodipodi:guide>
	<sodipodi:guide  id="guide4962" position="1662,744" orientation="1,0"></sodipodi:guide>
	<sodipodi:guide  id="guide4964" position="1734,744" orientation="1,0"></sodipodi:guide>
	<sodipodi:guide  id="guide5017" position="1806,744" orientation="1,0"></sodipodi:guide>
	<sodipodi:guide  id="guide5041" position="1878,744" orientation="1,0"></sodipodi:guide>
	<sodipodi:guide  id="guide66626" position="30,396" orientation="0,1"></sodipodi:guide>
	<sodipodi:guide  id="guide66628" position="12,324" orientation="0,1"></sodipodi:guide>
	<sodipodi:guide  id="guide66630" position="0,360" orientation="0,1"></sodipodi:guide>
	<sodipodi:guide  id="guide66632" position="30,342" orientation="0,1"></sodipodi:guide>
	<sodipodi:guide  id="guide19388" position="24,276" orientation="0,1"></sodipodi:guide>
	<sodipodi:guide  id="guide19390" position="24,204" orientation="0,1"></sodipodi:guide>
	<sodipodi:guide  id="guide19392" position="90,240" orientation="0,1"></sodipodi:guide>
	<sodipodi:guide  id="guide19394" position="90,222" orientation="0,1"></sodipodi:guide>
	<sodipodi:guide  id="guide20120" position="462,168" orientation="0,1"></sodipodi:guide>
	<sodipodi:guide  id="guide20122" position="0,132" orientation="0,1"></sodipodi:guide>
	<sodipodi:guide  id="guide20124" position="0,114" orientation="0,1"></sodipodi:guide>
	<sodipodi:guide  id="guide20126" position="714,96" orientation="0,1"></sodipodi:guide>
</sodipodi:namedview>
<g id="layer1" transform="translate(0,-308.2677)" inkscape:label="ALPHA_26" inkscape:groupmode="layer">
	<path id="path3004" inkscape:connector-curvature="0" opacity="0.94" enable-background="new    " d="M36,326.362l-18,72h12l3-12
		h18l3,12h12l-17.875-72H36z M42,353.362l6,21H36L42,353.362z"/>
	<path id="path3102" inkscape:connector-curvature="0" d="M90,326.362v72h36l6-6v-24l-6-6l6-6v-24l-6-6H90z M102,338.362h18v18h-18
		V338.362z M102,368.362h18v18h-18V368.362z"/>
	<path id="path2985-5-9" sodipodi:nodetypes="cccccccccccccccccc" inkscape:connector-curvature="0" d="M167.938,326.362l-5.938,6
		v60l6,6h36l6-6v-6v-6h-12v6h-24v-48h24v6h12v-12l-5.281-6H167.938z"/>
	<path id="path3596" sodipodi:nodetypes="cccccccccccc" inkscape:connector-curvature="0" d="M234,326.362v72h42l6-6v-60l-6-6H234z
		 M246,338.362h24v48h-24V338.362z"/>
	<path id="path2985-37" sodipodi:nodetypes="ccccccccccccc" inkscape:connector-curvature="0" d="M306,326.362v72h42v-12h-30v-18h12
		v-12h-12v-18h30v-12H306z"/>
	<path id="path3695" inkscape:connector-curvature="0" d="M420,326.362v12h-30v18h12v12h-12v30h-12v-72H420z"/>
	<path id="path3903" sodipodi:nodetypes="ccccccccccccccccccc" inkscape:connector-curvature="0" d="M456,434.362l-6,6v60l6,6h30
		l6-6v-36h-18v12h6v18h-18v-48h18v6h12v-12l-6-6H456z"/>
	<path id="path3903-6" sodipodi:nodetypes="ccccccccccccccccccc" inkscape:connector-curvature="0" d="M456,326.362l-6,6v60l6,6h36
		l6-6v-36h-24v12h12v18h-24v-48h24v6h12v-12l-6-6H456z"/>
	<path id="path3989" inkscape:connector-curvature="0" d="M522,326.362h12v30h18v-30h12v72h-12v-30h-18v30h-12V326.362z"/>
	<path id="path3769" inkscape:connector-curvature="0" d="M606,326.362h-12v72h12V326.362z"/>
	<path id="path3979" sodipodi:nodetypes="cccccccccccccccccc" inkscape:connector-curvature="0" d="M738,326.362v72h12v-30h6l12,12
		v18h12v-24l-12-12l12-12v-24h-12v18l-12,12h-6v-30H738z"/>
	<path id="path3987" sodipodi:nodetypes="cccccccccccccccccc" inkscape:connector-curvature="0" d="M738,434.362v72h12v-30h12l6,6
		v24h12v-30l-6-6l6-6v-30h-12v24l-6,6h-12v-30H738z"/>
	<path id="path3977" inkscape:connector-curvature="0" d="M810,434.362v72h12v-30h18v30h12v-30l-6-6l6-6v-30h-12v30h-18v-30H810z"/>
	<path id="path4721" sodipodi:nodetypes="cccccccccccccccccc" inkscape:connector-curvature="0" d="M738,530.362v72h12v-30h18l6,6
		v24h12v-30l-6-6l6-6v-30h-12v24l-6,6h-18v-30H738z"/>
	<path id="path4767" inkscape:connector-curvature="0" d="M810,326.362v72h12h12h12h12v-12h-36v-60H810z"/>
	<polygon points="930,326.349 918,326.349 906,371.349 894,326.349 882,326.349 882.002,326.362 882,326.362 882,398.362 
		894,398.362 894,374.349 900,398.349 912,398.349 918,374.349 918,398.362 930,398.362 930,326.362 929.997,326.362 	"/>
	<path id="path4020" inkscape:connector-curvature="0" d="M882,506.362l18-72h12l11.906,47.625l11.906-47.625h12l18,72h-12l-12-45
		l-11.906,44.625l0.094,0.375h-0.188H918h-0.188l0.096-0.375l-11.906-44.625l-12,45h-12H882z"/>
	<polygon points="990,326.362 990,374.362 966,326.362 954,326.362 954,398.362 966,398.362 966,350.362 990,398.362 1002,398.362 
		1002,326.362 	"/>
	<path id="path4485" sodipodi:nodetypes="cccccccccccccc" inkscape:connector-curvature="0" d="M1032,326.362l-6,6v60l6,6h36l6-6
		v-60l-6-6H1032z M1038,338.362h24v48h-24V338.362z"/>
	<path id="path4485-1" sodipodi:nodetypes="cccccccccccccc" inkscape:connector-curvature="0" d="M1032,434.362l-6,6v60l6,6h30l6-6
		v-60l-6-6H1032z M1038,446.362h18v48h-18V446.362z"/>
	<path id="path3889" inkscape:connector-curvature="0" d="M1098,326.362v72h12v-30h24l6-6v-30l-6-6H1098z M1110,338.362h18v18h-18
		V338.362z"/>
	<path id="path3128-85-4" sodipodi:nodetypes="ccccccccccccccccccc" inkscape:connector-curvature="0" d="M1176,326.362l-6,5.188
		v61.812l6,5h33.969l8.031,8l8.469-8.5l-8.469-8.438v-57.062l-5.719-6H1176z M1182,338.362h24v39.125l-5.469-5.438l-8.469,8.5
		l5.844,5.812H1182V338.362z"/>
	<path id="path3110" inkscape:connector-curvature="0" d="M1242,326.362v72h12v-30h18v30h12v-30l-6-6l6-6v-24l-6-6H1242z
		 M1254,338.362h18v18h-18V338.362z"/>
	<path id="path3887" sodipodi:nodetypes="ccccccccccccccccccccccc" inkscape:connector-curvature="0" d="M1368,344.362v-12l-6-6h-42
		l-6,6v30l6,6h36v18h-30v-6h-12v12l6,6h42l6-6v-30l-6-6h-36v-18h30v6H1368z"/>
	<path id="path3114" inkscape:connector-curvature="0" d="M1434,338.362v-12h-48v12h18v60h12v-60H1434z"/>
	<path id="path3899" inkscape:connector-curvature="0" d="M1470,434.362h-12v66l6,6h30l6-6v-66h-12v60h-18V434.362z"/>
	<path id="path3899-8" sodipodi:nodetypes="ccccccccccc" inkscape:connector-curvature="0" d="M1470,326.362h-12v66l6,6h36l6-6v-66
		h-12v60h-24V326.362z"/>
	<path id="path4010" inkscape:connector-curvature="0" d="M1548,398.362l-18-72h12l12,45l12-45h12l-18,72H1548z"/>
	<path id="path4014" inkscape:connector-curvature="0" d="M1602,326.362l18,72h12l11.906-47.625l11.906,47.625h12l18-72h-12l-12,45
		l-11.906-44.625l0.094-0.375h-0.188H1638h-0.188l0.094,0.375L1626,371.362l-12-45H1602L1602,326.362z"/>
	<path id="path3797" inkscape:connector-curvature="0" d="M1734,326.362l18,36l-18,36h12l12-24l12,24h12l-18-36l18-36h-12l-12,24
		l-12-24H1734z"/>
	<path id="path3797-6" inkscape:connector-curvature="0" d="M1806,326.362l18,36l-18,36h12l18-36l18-36h-12l-12,24l-12-24H1806z"/>
	<path id="path3797-6-1" inkscape:connector-curvature="0" d="M1806,434.362l18,36v36h12v-36l18-36h-12l-12,24l-12-24H1806z"/>
	<path id="path2985-5-3" sodipodi:nodetypes="cccccccccccccc" inkscape:connector-curvature="0" d="M678,326.362v12h18v48h-18v-6
		h-12v12l6,6h29.906H702l6-6v-66H678z"/>
	<path id="path3128-8-87" sodipodi:nodetypes="ccccccccccccc" inkscape:connector-curvature="0" d="M1878,440.362v6h36l-36,48v12h42
		l6-6v-6h-36l36-48v-12h-42L1878,440.362z"/>
	<path id="path3128-85-4-7" sodipodi:nodetypes="ccccccccccccccccccccc" inkscape:connector-curvature="0" d="M1176,434.362
		l-6,5.188v60.812l6,6h36.281l5.719-6l6,6v-12l-6-6v-48l-6-6H1176z M1182,446.362h24v30l-6-6v12l6,6v6h-24V446.362z"/>
	<path id="path3128-85-4-2" sodipodi:nodetypes="ccccccccccccccccccccc" inkscape:connector-curvature="0" d="M1248,434.362
		l-6,5.188v60.812l6,6h36.281l5.656-5.938l6.062,0.062l-5.844-12.062H1290v-48.062l-6-6H1248z M1254,446.362h24v35.812l-6-0.156
		l5.656,12.156H1278v0.188h-24V446.362z"/>
	<path id="path3993" inkscape:connector-curvature="0" d="M1602,434.362v66l6,6h18l6-6l6,6h18l6-6v-66h-12v60h-12v-60h-12v60h-12
		v-60H1602z"/>
	<path id="path4501-41-5" inkscape:connector-curvature="0" d="M41.723,656.556l-24,36l24,36h12l-24-36l24-36H41.723z
		 M59.723,656.556l-24,36l24,36h12l-24-36l24-36H59.723z"/>
	<path id="path4501-41-5-9" inkscape:connector-curvature="0" d="M119.723,728.556l24-36l-24-36h-12l24,36l-24,36H119.723z
		 M101.723,728.556l24-36l-24-36h-12l24,36l-24,36H101.723z"/>
	
		<path id="rect4731-3" sodipodi:nodetypes="ccccccccc" inkscape:connector-curvature="0" opacity="0.94" enable-background="new    " d="
		M179.723,656.556v12h-6v48h6v12h-18v-72H179.723z"/>
	
		<path id="rect4731-3-1" sodipodi:nodetypes="ccccccccc" inkscape:connector-curvature="0" opacity="0.94" enable-background="new    " d="
		M233.723,728.556v-12h6v-48h-6v-12h18v72H233.723z"/>
	
		<path id="rect4731-3-7" sodipodi:nodetypes="cccccccccccc" inkscape:connector-curvature="0" opacity="0.94" enable-background="new    " d="
		M323.723,656.556v6l-6,6v48l6,6v6h-12l-6-6v-54v-6l6-6H323.723z"/>
	
		<path id="rect4731-3-7-2" sodipodi:nodetypes="cccccccccccc" inkscape:connector-curvature="0" opacity="0.94" enable-background="new    " d="
		M377.723,728.556v-6l6-6v-48l-6-6v-6h12l6,6v54v6l-6,6H377.723z"/>
	<path id="path2985-37-2" sodipodi:nodetypes="ccccccccccccccccccccc" inkscape:connector-curvature="0" d="M449.723,656.556v72h30
		v-12h-18v-18h24v30h12v-30h12v-12h-48v-18h30v-12H449.723z"/>
	<rect id="rect4404" x="521.723" y="716.556" opacity="0.94" enable-background="new    " width="12" height="12"/>
	<path id="rect4404-4" inkscape:connector-curvature="0" opacity="0.94" enable-background="new    " d="M593.722,656.556v54h12v-54
		H593.722z M593.722,716.556v12h12v-12H593.722z"/>
	
		<path id="rect4404-4-8" sodipodi:nodetypes="ccccccccccccccccccccc" inkscape:connector-curvature="0" opacity="0.94" enable-background="new    " d="
		M665.722,662.556v12h12v-6h24v24h-18v18h12v-6h12l6-6v-36l-6-6h-36L665.722,662.556z M683.722,716.556v12h12v-12H683.722z"/>
	<path id="path4501" sodipodi:nodetypes="ccccc" inkscape:connector-curvature="0" d="M749.722,710.556h12l-12,24h-12
		L749.722,710.556z"/>
	<path id="path4501-2" inkscape:connector-curvature="0" d="M821.722,692.556v12h12v-12H821.722z M821.722,710.556l-12,24h12l12-24
		H821.722z"/>
	<path id="path4499" inkscape:connector-curvature="0" d="M881.722,656.556v18l12-12v-6H881.722z"/>
	<rect id="rect4537-3" x="953.722" y="686.556" opacity="0.94" enable-background="new    " width="12" height="12"/>
	<path id="path2985-37-7" inkscape:connector-curvature="0" d="M1025.722,656.556v72h42v-12h-30v-18h12v-12h-12v-18h30v-12H1025.722
		z"/>
	<path id="path4501-4" sodipodi:nodetypes="ccccc" inkscape:connector-curvature="0" d="M1043.722,644.556h12l-6,6h-12
		L1043.722,644.556z"/>
	<path id="path2985-37-7-9" inkscape:connector-curvature="0" d="M1097.722,656.556v72h42v-12h-30v-18h12v-12h-12v-18h30v-12
		H1097.722z"/>
	<path id="path4501-4-2" sodipodi:nodetypes="ccccc" inkscape:connector-curvature="0" d="M1121.722,644.556h-12l6,6h12
		L1121.722,644.556z"/>
	<path id="path2985-37-7-9-2" inkscape:connector-curvature="0" d="M1169.722,656.556v72h42v-12h-30v-18h12v-12h-12v-18h30v-12
		H1169.722z"/>
	<path id="path4485-8" sodipodi:nodetypes="cccccccccccccc" inkscape:connector-curvature="0" d="M1176,530.362l-6,6v60l6,6h36l6-6
		v-60l-6-6H1176z M1182,542.362h24v48h-24V542.362z"/>
	<path id="path19281" inkscape:connector-curvature="0" d="M1230,590.362h-12v-12h12V590.362z"/>
	
		<path id="rect4404-4-8-7" sodipodi:nodetypes="cccccccccccccccccccccc" inkscape:connector-curvature="0" opacity="0.94" enable-background="new    " d="
		M666,764.362v12h12v-6h24v24h-12l-6,6v12h12v-6h12l6-6v-36l-6-6h-36L666,764.362z M684,818.362v12h12v-12H684z"/>
	<path id="path19309" inkscape:connector-curvature="0" d="M1241.722,656.556v48l6,6h6v-42h48v48h-6v-18h-12v30h30v-72H1241.722z
		 M1259.722,680.556v48h18v-12h-6v-24h24v-12H1259.722z"/>
	<path id="path2985-37-7-0" inkscape:connector-curvature="0" d="M1026,758.362v72h42v-12h-30v-18h12v-12h-12v-18h30v-12H1026z"/>
	<path id="path4501-4-6" sodipodi:nodetypes="ccccc" inkscape:connector-curvature="0" d="M1050,740.362h12l-12,12h-12L1050,740.362
		z"/>
	<path id="path2985-37-7-9-0" inkscape:connector-curvature="0" d="M1098,758.362v72h42v-12h-30v-18h12v-12h-12v-18h30v-12H1098z"/>
	<path id="path4501-4-2-4" sodipodi:nodetypes="ccccc" inkscape:connector-curvature="0" d="M1116,740.362h-12l12,12h12
		L1116,740.362z"/>
	<path id="path2985-37-7-9-2-8" inkscape:connector-curvature="0" d="M1170,758.362v72h42v-12h-30v-18h12v-12h-12v-18h30v-12h-30h-6
		H1170z"/>
	<path id="path19368" inkscape:connector-curvature="0" d="M1169.722,650.556h12l6-6l6,6h12l-6-6h-24L1169.722,650.556z"/>
	<path id="path19368-0" sodipodi:nodetypes="cccccccc" inkscape:connector-curvature="0" d="M1170,752.362h12l6-6l6,6h12l-12-12h-12
		L1170,752.362z"/>
	<path id="path4485-8-0" sodipodi:nodetypes="cccccccccccccc" inkscape:connector-curvature="0" d="M1254,536.362l-6,6v60l6,6h36
		l6-6v-60l-6-6H1254z M1260,548.362h24v48h-24V548.362z"/>
	<path id="path19281-0" sodipodi:nodetypes="ccccc" inkscape:connector-curvature="0" d="M1302,590.362h-24v-12h24V590.362z"/>
	<path id="path19433" inkscape:connector-curvature="0" d="M1878,326.362v12h30l-30,60h12h36v-12h-30l30-60h-12H1878z"/>
	<path id="path20025-0" inkscape:connector-curvature="0" d="M600,884.362l-6,6v24l6,3l-6,3v30l6,6h30l6-6v-30l-6-3l6-3v-24l-6-6
		H600z M606,896.362h18v12h-6v6h-6v-6h-6V896.362z M612,926.362h6v6h6v12h-18v-12h6V926.362z"/>
	<path id="path3128-85-41" sodipodi:nodetypes="ccccccccccccccccccc" inkscape:connector-curvature="0" d="M24,884.362l-6,5v61
		l6,5.875v0.125h30l6-6v-60l-6-6H24z M30,896.362h12.875L30,921.205V896.362z M48,913.518v30.844H32L48,913.518z"/>
	<polygon points="120,944.362 120,884.362 108,884.362 102,890.362 102,902.362 108,902.362 108,944.362 90,944.362 90,956.362 
		138,956.362 138,944.362 	"/>
	<polygon points="276,890.362 270,884.362 240,884.362 234,890.362 234,902.362 246,902.362 246,896.362 264,896.362 264,908.362 
		258,908.362 258,926.362 264,926.362 264,944.362 246,944.362 246,938.362 234,938.362 234,950.362 240,956.362 270,956.362 
		276,950.362 276,920.362 270,917.362 276,914.362 	"/>
	<polygon points="210,890.362 204,884.362 174,884.362 168,890.362 168,902.362 180,902.362 180,896.362 198,896.362 198,902.362 
		162,944.362 162,956.362 210,956.362 210,944.362 180,944.362 210,908.362 	"/>
	<polygon points="348.518,920.362 342,920.362 342,914.362 330,914.362 330,920.362 318,920.362 336,884.362 324,884.362 
		306,920.362 306,926.362 312.609,932.362 330,932.362 330,956.362 342,956.362 342,932.362 354,932.362 354,926.362 	"/>
	<polygon points="390,884.362 384,890.362 384,914.362 390,920.362 414,920.362 414,944.362 390,944.362 390,938.362 378,938.362 
		378,950.362 384,956.362 420,956.362 420,956.078 426,950.362 426,916.049 420,908.362 396,908.362 396,896.362 426,896.362 
		426,884.362 	"/>
	<path id="path2985-37-7-8-1-9" inkscape:connector-curvature="0" d="M456,884.362l-6,6v60l6,6h36v-0.312l6-5.688v-34.312l-6-7.688
		h-30v-12h36v-6l-6-6H456z M462,920.362h24v24h-24V920.362z"/>
	<path id="path3005-3-9-0-8" d="M528,884.362l-6,6v6h33v6l-30,54h15l30-54v-6v-6l-6-6H528z"/>
	<path id="path20112" d="M672,884.362l-6,6v24l6,6h24v24h-18v-6h-12v12l6,6h30l6-6v-30l-6-3l6-3v-24l-6-6H672z M678,896.362h18v12
		h-18V896.362z"/>
</g>
</svg>
