<?xml version="1.0" encoding="UTF-8" standalone="no"?>
<!-- Created with Inkscape (http://www.inkscape.org/) -->

<svg
   xmlns:dc="http://purl.org/dc/elements/1.1/"
   xmlns:cc="http://creativecommons.org/ns#"
   xmlns:rdf="http://www.w3.org/1999/02/22-rdf-syntax-ns#"
   xmlns:svg="http://www.w3.org/2000/svg"
   xmlns="http://www.w3.org/2000/svg"
   xmlns:sodipodi="http://sodipodi.sourceforge.net/DTD/sodipodi-0.dtd"
   xmlns:inkscape="http://www.inkscape.org/namespaces/inkscape"
   width="6250"
   height="32500"
   id="svg15868"
   version="1.1"
   inkscape:version="0.48.2 r9819"
   sodipodi:docname="A-Z.svg">
  <defs
     id="defs15870" />
  <sodipodi:namedview
     id="base"
     pagecolor="#ffffff"
     bordercolor="#666666"
     borderopacity="1.0"
     inkscape:pageopacity="0.0"
     inkscape:pageshadow="2"
     inkscape:zoom="0.087499999"
     inkscape:cx="3957.4875"
     inkscape:cy="5628.1934"
     inkscape:document-units="pt"
     inkscape:current-layer="layer1"
     showgrid="false"
     units="pt"
     showguides="true"
     inkscape:guide-bbox="true"
     inkscape:window-width="1170"
     inkscape:window-height="646"
     inkscape:window-x="38"
     inkscape:window-y="138"
     inkscape:window-maximized="0">
    <sodipodi:guide
       orientation="0,1"
       position="0,125"
       id="guide15876" />
    <sodipodi:guide
       orientation="0,1"
       position="0,1125"
       id="guide15878" />
    <sodipodi:guide
       orientation="1,0"
       position="125,0"
       id="guide15899" />
    <sodipodi:guide
       orientation="1,0"
       position="1125,0"
       id="guide15903" />
    <sodipodi:guide
       orientation="0,1"
       position="0,1375"
       id="guide15923" />
    <sodipodi:guide
       orientation="0,1"
       position="0,2375"
       id="guide15925" />
    <sodipodi:guide
       orientation="1,0"
       position="1375,0"
       id="guide15927" />
    <sodipodi:guide
       orientation="1,0"
       position="2375,0"
       id="guide15929" />
    <sodipodi:guide
       orientation="1,0"
       position="2625,0"
       id="guide15931" />
    <sodipodi:guide
       orientation="1,0"
       position="3625,0"
       id="guide15933" />
    <sodipodi:guide
       orientation="1,0"
       position="3875,0"
       id="guide15935" />
    <sodipodi:guide
       orientation="1,0"
       position="4875,0"
       id="guide15937" />
    <sodipodi:guide
       orientation="1,0"
       position="5125,0"
       id="guide15939" />
    <sodipodi:guide
       orientation="1,0"
       position="6125,0"
       id="guide15941" />
    <sodipodi:guide
       orientation="0,1"
       position="0,2625"
       id="guide15945" />
    <sodipodi:guide
       orientation="0,1"
       position="0,3625"
       id="guide15947" />
    <sodipodi:guide
       orientation="0,1"
       position="0,3625"
       id="guide15949" />
    <sodipodi:guide
       orientation="0,1"
       position="0,3875"
       id="guide15953" />
    <sodipodi:guide
       orientation="0,1"
       position="0,6125"
       id="guide15955" />
    <sodipodi:guide
       orientation="0,1"
       position="0,5125"
       id="guide15957" />
    <sodipodi:guide
       orientation="0,1"
       position="0,4875"
       id="guide15959" />
    <sodipodi:guide
       orientation="0,1"
       position="0,6375"
       id="guide15963" />
    <sodipodi:guide
       orientation="0,1"
       position="0,7375"
       id="guide15965" />
    <sodipodi:guide
       orientation="0,1"
       position="0,7625"
       id="guide15967" />
    <sodipodi:guide
       orientation="0,1"
       position="0,8625"
       id="guide15969" />
    <sodipodi:guide
       orientation="0,1"
       position="0,8875"
       id="guide15973" />
    <sodipodi:guide
       orientation="0,1"
       position="0,10125"
       id="guide15975" />
    <sodipodi:guide
       orientation="0,1"
       position="0,11125"
       id="guide15979" />
    <sodipodi:guide
       orientation="0,1"
       position="0,9875"
       id="guide15981" />
    <sodipodi:guide
       orientation="0,1"
       position="0,11375"
       id="guide15983" />
    <sodipodi:guide
       orientation="0,1"
       position="0,12375"
       id="guide15985" />
    <sodipodi:guide
       orientation="0,1"
       position="0,12625"
       id="guide15987" />
    <sodipodi:guide
       orientation="0,1"
       position="0,13875"
       id="guide15989" />
    <sodipodi:guide
       orientation="0,1"
       position="0,13625"
       id="guide15993" />
    <sodipodi:guide
       orientation="0,1"
       position="0,14875"
       id="guide15995" />
    <sodipodi:guide
       orientation="0,1"
       position="0,15125"
       id="guide15999" />
    <sodipodi:guide
       orientation="0,1"
       position="0,16125"
       id="guide16001" />
    <sodipodi:guide
       orientation="0,1"
       position="0,17375"
       id="guide16003" />
    <sodipodi:guide
       orientation="0,1"
       position="0,16375"
       id="guide16005" />
    <sodipodi:guide
       orientation="0,1"
       position="0,17625"
       id="guide16009" />
    <sodipodi:guide
       orientation="0,1"
       position="0,18625"
       id="guide16011" />
    <sodipodi:guide
       orientation="0,1"
       position="0,18875"
       id="guide16013" />
    <sodipodi:guide
       orientation="0,1"
       position="0,19875"
       id="guide16015" />
    <sodipodi:guide
       orientation="0,1"
       position="0,20125"
       id="guide16017" />
    <sodipodi:guide
       orientation="0,1"
       position="0,21125"
       id="guide16019" />
    <sodipodi:guide
       orientation="0,1"
       position="0,21375"
       id="guide16021" />
    <sodipodi:guide
       orientation="0,1"
       position="0,22375"
       id="guide16023" />
    <sodipodi:guide
       orientation="0,1"
       position="0,23875"
       id="guide16025" />
    <sodipodi:guide
       orientation="0,1"
       position="0,23625"
       id="guide16027" />
    <sodipodi:guide
       orientation="0,1"
       position="0,22625"
       id="guide16031" />
    <sodipodi:guide
       orientation="0,1"
       position="0,24875"
       id="guide16033" />
    <sodipodi:guide
       orientation="0,1"
       position="0,25125"
       id="guide16035" />
    <sodipodi:guide
       orientation="0,1"
       position="0,26125"
       id="guide16037" />
    <sodipodi:guide
       orientation="0,1"
       position="0,26375"
       id="guide16039" />
    <sodipodi:guide
       orientation="0,1"
       position="0,27375"
       id="guide16041" />
    <sodipodi:guide
       orientation="0,1"
       position="0,27625"
       id="guide16045" />
    <sodipodi:guide
       orientation="0,1"
       position="0,28625"
       id="guide16047" />
    <sodipodi:guide
       orientation="0,1"
       position="0,28875"
       id="guide16049" />
    <sodipodi:guide
       orientation="0,1"
       position="0,29875"
       id="guide16051" />
    <sodipodi:guide
       orientation="0,1"
       position="0,30125"
       id="guide16053" />
    <sodipodi:guide
       orientation="0,1"
       position="0,31125"
       id="guide16055" />
    <sodipodi:guide
       orientation="0,1"
       position="0,31375"
       id="guide16057" />
    <sodipodi:guide
       orientation="0,1"
       position="0,32375"
       id="guide16059" />
  </sodipodi:namedview>
  <metadata
     id="metadata15873">
    <rdf:RDF>
      <cc:Work
         rdf:about="">
        <dc:format>image/svg+xml</dc:format>
        <dc:type
           rdf:resource="http://purl.org/dc/dcmitype/StillImage" />
        <dc:title />
      </cc:Work>
    </rdf:RDF>
  </metadata>
  <g
     inkscape:label="Calque 1"
     inkscape:groupmode="layer"
     id="layer1"
     transform="translate(0,31447.638)">
    <path
       inkscape:connector-curvature="0"
       style="opacity:0.93999999;fill:#000000;stroke:none;display:inline"
       d="m 375,-31322.638 -250,1000 166.6667,0 41.6666,-166.667 250,0 41.6667,166.667 166.6667,0 -248.2639,-1000 -168.4028,0 z m 83.3333,375 83.3334,291.667 -166.6667,0 83.3333,-291.667 z"
       id="path3004" />
    <path
       inkscape:connector-curvature="0"
       style="fill:#000000;stroke:none;display:inline"
       d="m 125,-30072.638 0,1000 500,0 83.3333,-83.333 0,-333.334 -83.3333,-83.333 83.3333,-83.333 0,-333.334 -83.3333,-83.333 -500,0 z m 166.6667,166.667 250,0 0,250 -250,0 0,-250 z m 0,416.666 250,0 0,250 -250,0 0,-250 z"
       id="path3102" />
    <path
       inkscape:connector-curvature="0"
       style="fill:#000000;stroke:none;display:inline"
       d="m 207.4653,-28822.638 -82.4653,83.333 0,833.334 83.3333,83.333 500,0 83.3334,-83.333 0,-83.334 0,-83.333 -166.6667,0 0,83.333 -333.3333,0 0,-666.666 333.3333,0 0,83.333 166.6667,0 0,-166.667 -73.3514,-83.333 z"
       id="path2985-5-9"
       sodipodi:nodetypes="cccccccccccccccccc" />
    <path
       style="fill:#000000;stroke:none;display:inline"
       d="m 125,-27572.638 0,1000 583.3333,0 83.3334,-83.333 0,-833.334 -83.3334,-83.333 z m 166.6667,166.667 333.3333,0 0,666.666 -333.3333,0 z"
       id="path3596"
       inkscape:connector-curvature="0"
       sodipodi:nodetypes="cccccccccccc" />
    <path
       style="fill:#000000;stroke:none;display:inline"
       d="m 125,-26322.638 0,1000 583.333,0 0,-166.667 -416.666,0 0,-250 166.666,0 0,-166.666 -166.666,0 0,-250 416.666,0 0,-166.667 z"
       id="path2985-37"
       inkscape:connector-curvature="0"
       sodipodi:nodetypes="ccccccccccccc" />
    <path
       style="fill:#000000;stroke:none;display:inline"
       d="m 708.333,-25072.638 0,166.667 -416.666,0 0,250 166.666,0 0,166.666 -166.666,0 0,416.667 -166.667,0 0,-1000 z"
       id="path3695"
       inkscape:connector-curvature="0" />
    <path
       style="fill:#000000;stroke:none;display:inline"
       d="m 208.33306,-23822.639 -83.33306,83.333 0,833.335 83.33306,83.333 500.00038,0 83.33406,-83.333 0,-500 -333.33425,0 0,166.666 166.66712,0 0,250 -333.33324,0 0,-666.667 333.33324,0 0,83.333 166.66713,0 0,-166.667 -83.33406,-83.333 z"
       id="path3903-6"
       inkscape:connector-curvature="0"
       sodipodi:nodetypes="ccccccccccccccccccc" />
    <path
       style="fill:#000000;stroke:none;display:inline"
       d="m 125,-22572.638 166.667,0 0,416.667 250,0 0,-416.667 166.666,0 0,1000 -166.666,0 0,-416.667 -250,0 0,416.667 -166.667,0 z"
       id="path3989"
       inkscape:connector-curvature="0" />
    <path
       style="fill:#000000;stroke:none;display:inline"
       d="m 1458.3333,-23822.638 -83.3333,83.333 0,833.334 83.3333,83.333 416.6667,0 83.3333,-83.333 0,-500 -250,0 0,166.666 83.3334,0 0,250 -250,0 0,-666.666 250,0 0,83.333 166.6666,0 0,-166.667 -83.3333,-83.333 z"
       id="path3903"
       inkscape:connector-curvature="0"
       sodipodi:nodetypes="ccccccccccccccccccc" />
    <path
       style="fill:#000000;stroke:none;display:inline"
       d="m 291.637,-21322.46 -166.637,0 0,999.822 166.637,0 z"
       id="path3769"
       inkscape:connector-curvature="0" />
    <path
       inkscape:connector-curvature="0"
       id="path3979"
       d="m 125,-18822.46 0,999.822 166.6369,0 0,-416.592 83.3185,0 166.637,166.637 0,249.955 166.637,0 0,-333.274 -166.637,-166.637 166.637,-166.637 0,-333.274 -166.637,0 0,249.956 -166.637,166.637 -83.3185,0 0,-416.593 z"
       style="fill:#000000;stroke:none;display:inline"
       sodipodi:nodetypes="cccccccccccccccccc" />
    <path
       style="fill:#000000;stroke:none;display:inline"
       d="m 125,-17572.46 0,999.822 166.637,0 166.637,0 166.637,0 166.637,0 0,-166.637 -499.911,0 0,-833.185 -166.637,0 z"
       id="path4767"
       inkscape:connector-curvature="0" />
    <g
       style="display:inline"
       id="g4481"
       transform="matrix(13.886416,0,0,13.886416,-958.14045,-27061.867)">
      <path
         inkscape:connector-curvature="0"
         id="path4173"
         d="m 78,773.375 0,72 12,0 0,-72 -12,0 z m 36,0 0,72 12,0 0,-72 -12,0 z"
         style="fill:#000000;stroke:none" />
      <path
         id="path4171"
         d="m 96,845.36218 -18,-72 12,0 12,45 12,-45 12,0 -18,72 -12,0 z"
         style="fill:#000000;stroke:none"
         inkscape:connector-curvature="0" />
    </g>
    <path
       sodipodi:nodetypes="cccccccccccccc"
       id="path4485"
       d="m 208.3185,-13822.46 -83.3185,83.319 0,833.185 83.3185,83.318 499.9109,0 83.3185,-83.318 0,-833.185 -83.3185,-83.319 z m 83.3185,166.637 333.2739,0 0,666.548 -333.2739,0 z"
       style="fill:#000000;stroke:none;display:inline"
       inkscape:connector-curvature="0" />
    <path
       style="fill:#000000;stroke:none;display:inline"
       d="m 125,-20072.46 0,166.637 416.5925,0 0,666.548 -249.9555,0 0,-83.318 -166.637,0 0,166.637 83.3185,83.318 415.2899,0 1.3053,0 83.3185,-83.318 0,-916.504 z"
       id="path2985-5-3"
       inkscape:connector-curvature="0"
       sodipodi:nodetypes="cccccccccccccc" />
    <path
       inkscape:connector-curvature="0"
       id="path3987"
       d="m 1375,-18822.638 0,1000 166.6667,0 0,-416.667 166.6666,0 83.3334,83.334 0,333.333 166.6666,0 0,-416.667 -83.3333,-83.333 83.3333,-83.333 0,-416.667 -166.6666,0 0,333.333 -83.3334,83.334 -166.6666,0 0,-416.667 z"
       style="fill:#000000;stroke:none;display:inline"
       sodipodi:nodetypes="cccccccccccccccccc" />
    <path
       style="fill:#000000;stroke:none;display:inline"
       d="m 3875,-18822.638 0,1000 166.6667,0 0,-416.667 250,0 0,416.667 166.6666,0 0,-416.667 -83.3333,-83.333 83.3333,-83.333 0,-416.667 -166.6666,0 0,416.667 -250,0 0,-416.667 z"
       id="path3977"
       inkscape:connector-curvature="0" />
    <path
       id="path4020"
       d="m 1375,-15322.638 250,-1000 166.6667,0 165.3652,661.458 165.3639,-661.458 166.6667,0 250,1000 -166.6667,0 -166.6666,-625 -165.3639,619.792 1.3055,5.208 -2.6041,0 -164.0625,0 -2.6042,0 1.3056,-5.208 -165.3639,-619.792 -166.6667,625 -166.6667,0 z"
       style="fill:#000000;stroke:none;display:inline"
       inkscape:connector-curvature="0" />
    <path
       sodipodi:nodetypes="cccccccccccccc"
       id="path4485-1"
       d="m 1458.3333,-13822.638 -83.3333,83.333 0,833.334 83.3333,83.333 416.6667,0 83.3333,-83.333 0,-833.334 -83.3333,-83.333 z m 83.3334,166.667 250,0 0,666.666 -250,0 z"
       style="fill:#000000;stroke:none;display:inline"
       inkscape:connector-curvature="0" />
    <path
       sodipodi:nodetypes="cccccccccccccccccc"
       style="fill:#000000;stroke:none;display:inline"
       d="m 2625,-18822.638 0,1000 166.6667,0 0,-416.667 250,0 83.3333,83.334 0,333.333 166.6667,0 0,-416.667 -83.3334,-83.333 83.3334,-83.333 0,-416.667 -166.6667,0 0,333.333 -83.3333,83.334 -250,0 0,-416.667 z"
       id="path4721"
       inkscape:connector-curvature="0" />
    <path
       inkscape:connector-curvature="0"
       style="fill:#000000;stroke:none;display:inline"
       d="m 125,-12572.638 0,1000 166.6667,0 0,-416.667 333.3333,0 83.3333,-83.333 0,-416.667 -83.3333,-83.333 -500,0 z m 166.6667,166.667 250,0 0,250 -250,0 0,-250 z"
       id="path3889" />
    <path
       inkscape:connector-curvature="0"
       style="fill:#000000;stroke:none;display:inline"
       d="m 125,-10072.638 0,1000 166.6667,0 0,-416.667 250,0 0,416.667 166.6666,0 0,-416.667 -83.3333,-83.333 83.3333,-83.333 0,-333.334 -83.3333,-83.333 -500,0 z m 166.6667,166.667 250,0 0,250 -250,0 0,-250 z"
       id="path3110" />
    <path
       style="fill:#000000;stroke:none;display:inline"
       d="m 875,-8572.638 0,-166.667 -83.3333,-83.333 -583.3334,0 -83.3333,83.333 0,416.667 83.3333,83.333 500,0 0,250 -416.6666,0 0,-83.333 -166.6667,0 0,166.667 83.3333,83.333 583.3334,0 83.3333,-83.333 0,-416.667 -83.3333,-83.333 -500,0 0,-250 416.6666,0 0,83.333 z"
       id="path3887"
       inkscape:connector-curvature="0"
       sodipodi:nodetypes="ccccccccccccccccccccccc" />
    <path
       style="fill:#000000;stroke:none;display:inline"
       d="m 791.6667,-7405.971 0,-166.667 -666.6667,0 0,166.667 250,0 0,833.333 166.6667,0 0,-833.333 z"
       id="path3114"
       inkscape:connector-curvature="0" />
    <path
       style="fill:#000000;stroke:none;display:inline"
       d="m 291.6667,-6322.638 -166.6667,0 0,916.667 83.3333,83.333 500,0 83.3334,-83.333 0,-916.667 -166.6667,0 0,833.333 -333.3333,0 z"
       id="path3899-8"
       inkscape:connector-curvature="0"
       sodipodi:nodetypes="ccccccccccc" />
    <path
       id="path4010"
       d="m 375,-4072.638 -250,-1000 166.6667,0 166.6666,625 166.6667,-625 166.6667,0 -250,1000 -166.6667,0 z"
       style="fill:#000000;stroke:none;display:inline"
       inkscape:connector-curvature="0" />
    <path
       style="fill:#000000;stroke:none;display:inline"
       d="m 1541.6666,-6322.638 -166.6666,0 0,916.6667 83.3333,83.3333 416.6667,0 83.3333,-83.3333 0,-916.6667 -166.6666,0 0,833.3334 -250.0001,0 z"
       id="path3899"
       inkscape:connector-curvature="0" />
    <path
       style="fill:#000000;stroke:none;display:inline"
       d="m 208.331,-11322.61 -83.331,72.053 0,844.588 83.331,83.331 503.893,0 79.4241,-83.331 83.3311,83.331 0,-166.662 -83.3311,-83.331 0,-666.649 -83.331,-83.331 z m 83.331,166.662 333.3241,0 0,416.655 -83.331,-83.331 0,166.662 83.331,83.331 0,83.331 -333.3241,0 z"
       id="path3128-85-4-7"
       inkscape:connector-curvature="0"
       sodipodi:nodetypes="ccccccccccccccccccccc" />
    <path
       style="fill:#000000;stroke:none;display:inline"
       d="m 1458.331,-11322.61 -83.331,72.054 0,844.587 83.331,83.331 503.893,0 78.5561,-82.456 84.1991,0.834 -81.1603,-167.524 -2.1707,0 0,-667.523 -83.331,-83.331 z m 83.3311,166.662 333.324,0 0,497.389 -83.331,-2.18 78.5576,168.842 4.7734,0 0,2.597 -333.324,0 z"
       id="path3128-85-4-2"
       inkscape:connector-curvature="0"
       sodipodi:nodetypes="ccccccccccccccccccccc" />
    <path
       inkscape:connector-curvature="0"
       style="fill:#000000;stroke:none;display:inline"
       d="m 125,-3822.638 250,1000 166.6667,0 165.3652,-661.4583 165.3639,661.4583 166.6667,0 250,-1000 -166.6667,0 -166.6666,625 -165.3639,-619.7917 1.3055,-5.2083 -2.6041,0 -164.0625,0 -2.6042,0 1.3056,5.2083 -165.3639,619.7917 -166.6667,-625 -166.6667,0 z"
       id="path4014" />
    <path
       style="fill:#000000;stroke:none;display:inline"
       d="m 125,-2572.638 250,500 -250,500 166.6666,0 166.6667,-333.3333 166.6667,333.3333 166.6666,0 -250,-500 250,-500 -166.6666,0 -166.6667,333.3333 -166.6667,-333.3333 -166.6666,0 z"
       id="path3797"
       inkscape:connector-curvature="0" />
    <path
       style="fill:#000000;stroke:none;display:inline"
       d="m 1375,-1322.638 250,500 -250,500 166.6666,0 250,-500 250,-500 -166.6666,0 -166.6667,333.3333 -166.6667,-333.3333 -166.6666,0 z"
       id="path3797-6"
       inkscape:connector-curvature="0" />
    <path
       style="fill:#000000;stroke:none;display:inline"
       d="m 125,-72.638 0,166.6667 541.6666,0 L 125,635.6953 c 0,69.4445 0,138.8889 0,208.3334 l 83.3333,83.3333 583.3333,0 0,-166.6667 -541.6666,0 541.6666,-541.6666 c 0,-69.4445 0,-138.8889 0,-208.3334 L 708.3333,-72.638 z"
       id="path3128-8-87"
       inkscape:connector-curvature="0"
       sodipodi:nodetypes="ccccccccccccc" />
    <path
       inkscape:connector-curvature="0"
       style="fill:#000000;stroke:none;display:inline"
       d="m 125,-1322.638 250,500 0,500 166.6667,0 0,-500 250,-500 -166.6667,0 -166.6666,333.3333 -166.6667,-333.3333 -166.6667,0 z"
       id="path3797-6-1" />
    <path
       style="fill:#000000;stroke:none;display:inline"
       d="m 2625,-3822.638 0,916.6667 83.3333,83.3333 250,0 83.3334,-83.3333 83.3333,83.3333 250,0 83.3333,-83.3333 0,-916.6667 -166.6666,0 0,833.3333 -166.6667,0 0,-833.3333 -166.6667,0 0,833.3333 -166.6666,0 0,-833.3333 z"
       id="path3993"
       inkscape:connector-curvature="0" />
    <g
       style="display:inline;fill:#000000"
       id="g4492"
       transform="matrix(13.888889,0,0,13.888889,-17.333333,-17209.685)">
      <path
         style="fill:#000000;stroke:none"
         d="m 10.248,153.86738 0,72 11.999246,0 0,-48.00153 24.000754,48.00153 11.999246,0 0,-72 -11.999246,0 0,47.99923 -24.000754,-47.99923 -11.999246,0 z"
         id="path4494"
         inkscape:connector-curvature="0" />
    </g>
  </g>
</svg>
